<svg xmlns="http://www.w3.org/2000/svg" viewBox="0 0 500 500"><g id="freepik--Floor--inject-3"><ellipse id="freepik--floor--inject-3" cx="250" cy="358.9" rx="239.65" ry="129.39" style="fill:#f0f0f0"></ellipse></g><g id="freepik--Speakers--inject-3"><g id="freepik--speakers--inject-3"><g id="freepik--Speaker--inject-3"><path d="M69.33,166.34,25.19,191.83a9.55,9.55,0,0,0-4.33,7.5v88.5a9.55,9.55,0,0,0,4.33,7.5l32,18.45a9.57,9.57,0,0,0,8.66,0L110,288.29a9.58,9.58,0,0,0,4.33-7.5v-88.5a9.58,9.58,0,0,0-4.33-7.5L78,166.34A9.57,9.57,0,0,0,69.33,166.34Z" style="fill:#37474f"></path><path d="M65.81,215.28,110,189.79c2.39-1.38,4.33-.26,4.33,2.5v88.5a9.58,9.58,0,0,1-4.33,7.5L65.81,313.78c-2.4,1.38-4.33.26-4.33-2.5v-88.5A9.55,9.55,0,0,1,65.81,215.28Z" style="fill:#455a64"></path><path d="M57.15,215.28l-32-18.45c-2.4-1.38-4.33-.26-4.33,2.5v88.5a9.55,9.55,0,0,0,4.33,7.5l32,18.45c2.39,1.38,4.33.26,4.33-2.5v-88.5A9.58,9.58,0,0,0,57.15,215.28Z" style="fill:#263238"></path><path d="M78,166.34l32,18.45c2.39,1.38,2.39,3.62,0,5L65.81,215.28a9.57,9.57,0,0,1-8.66,0l-32-18.45c-2.4-1.38-2.4-3.62,0-5l44.14-25.49A9.57,9.57,0,0,1,78,166.34Z" style="fill:#37474f"></path><path d="M87.88,291.55c10-5.8,18.18-19.9,18.18-31.5s-8.14-16.3-18.18-10.5-18.19,19.9-18.19,31.5S77.84,297.34,87.88,291.55Z" style="fill:#263238"></path><path d="M87.88,289.44c9-5.22,16.36-17.9,16.36-28.34s-7.32-14.66-16.36-9.45S71.52,269.56,71.52,280,78.84,294.66,87.88,289.44Z" style="fill:#37474f"></path><path d="M87.88,281.58c5.27-3.05,9.55-10.46,9.55-16.55s-4.28-8.56-9.55-5.51S78.33,270,78.33,276.06,82.6,284.62,87.88,281.58Z" style="fill:#00C3FF"></path><path d="M87.88,281.58c5.27-3.05,9.55-10.46,9.55-16.55s-4.28-8.56-9.55-5.51S78.33,270,78.33,276.06,82.6,284.62,87.88,281.58Z" style="opacity:0.30000000000000004"></path><path d="M87.88,273.82a6.25,6.25,0,0,0,2.84-4.91c0-1.81-1.27-2.54-2.84-1.64A6.28,6.28,0,0,0,85,272.19C85,274,86.31,274.73,87.88,273.82Z" style="fill:#00C3FF"></path><path d="M87.88,242.82c7.41-4.28,13.41-14.67,13.41-23.23s-6-12-13.41-7.74-13.41,14.68-13.41,23.23S80.47,247.1,87.88,242.82Z" style="fill:#263238"></path><path d="M87.88,241.27c6.66-3.85,12.07-13.21,12.07-20.9s-5.41-10.82-12.07-7-12.07,13.21-12.07,20.9S81.22,245.12,87.88,241.27Z" style="fill:#37474f"></path><path d="M87.88,235.47a15.57,15.57,0,0,0,7-12.2c0-4.49-3.15-6.31-7-4.07a15.59,15.59,0,0,0-7,12.2C80.83,235.9,84,237.72,87.88,235.47Z" style="fill:#00C3FF"></path><path d="M87.88,235.47a15.57,15.57,0,0,0,7-12.2c0-4.49-3.15-6.31-7-4.07a15.59,15.59,0,0,0-7,12.2C80.83,235.9,84,237.72,87.88,235.47Z" style="opacity:0.30000000000000004"></path><path d="M87.88,229.75A4.64,4.64,0,0,0,90,226.13c0-1.34-.94-1.88-2.09-1.21a4.61,4.61,0,0,0-2.09,3.62C85.79,229.88,86.72,230.42,87.88,229.75Z" style="fill:#00C3FF"></path><path d="M109.55,194.72A3.41,3.41,0,0,0,108,197.4c0,1,.69,1.38,1.54.89a3.4,3.4,0,0,0,1.55-2.68C111.1,194.62,110.41,194.22,109.55,194.72Z" style="fill:#263238"></path><path d="M67.09,219.25a3.4,3.4,0,0,0-1.55,2.68c0,1,.69,1.38,1.55.89a3.41,3.41,0,0,0,1.54-2.68C68.63,219.15,67.94,218.75,67.09,219.25Z" style="fill:#263238"></path><path d="M109.55,280.24a3.45,3.45,0,0,0-1.54,2.68c0,1,.69,1.39,1.54.9a3.43,3.43,0,0,0,1.55-2.68C111.1,280.15,110.41,279.75,109.55,280.24Z" style="fill:#263238"></path><path d="M67.09,304.77a3.43,3.43,0,0,0-1.55,2.68c0,1,.69,1.39,1.55.9a3.45,3.45,0,0,0,1.54-2.68C68.63,304.68,67.94,304.28,67.09,304.77Z" style="fill:#263238"></path><path d="M37.37,269.53,45,273.91c2.39,1.38,4.33.26,4.33-2.5V248.58a9.58,9.58,0,0,0-4.33-7.5l-7.59-4.38C35,235.32,33,236.44,33,239.2V262A9.58,9.58,0,0,0,37.37,269.53Z" style="fill:#37474f"></path><path d="M35.07,240.74c0-1.65,1.17-2.33,2.6-1.5l7,4a5.73,5.73,0,0,1,2.6,4.5v4l-12.19-7Z" style="fill:#263238"></path><path d="M47.26,269.87c0,1.65-1.16,2.32-2.6,1.5l-7-4a5.76,5.76,0,0,1-2.6-4.5v-4l12.19,7Z" style="fill:#263238"></path></g><g id="freepik--speaker--inject-3"><path d="M69.2,106.38,28.29,130a8.88,8.88,0,0,0-4,6.95v48a8.88,8.88,0,0,0,4,6.95L57.91,209a8.88,8.88,0,0,0,8,0l40.9-23.62a8.87,8.87,0,0,0,4-6.95v-48a8.87,8.87,0,0,0-4-7l-29.61-17.1A8.88,8.88,0,0,0,69.2,106.38Z" style="fill:#37474f"></path><path d="M65.94,151.73l40.9-23.62c2.22-1.28,4-.24,4,2.32v48a8.87,8.87,0,0,1-4,6.95L65.94,209c-2.22,1.28-4,.24-4-2.32v-48A8.87,8.87,0,0,1,65.94,151.73Z" style="fill:#455a64"></path><path d="M57.91,151.73l-29.62-17.1c-2.21-1.28-4-.24-4,2.32v48a8.88,8.88,0,0,0,4,6.95L57.91,209c2.22,1.28,4,.24,4-2.32v-48A8.86,8.86,0,0,0,57.91,151.73Z" style="fill:#263238"></path><path d="M77.23,106.38l29.61,17.1c2.22,1.28,2.22,3.35,0,4.63l-40.9,23.62a8.88,8.88,0,0,1-8,0l-29.62-17.1c-2.21-1.28-2.21-3.35,0-4.63L69.2,106.38A8.88,8.88,0,0,1,77.23,106.38Z" style="fill:#37474f"></path><path d="M86.39,188.44c9.31-5.38,16.85-18.44,16.85-29.19s-7.54-15.1-16.85-9.73S69.54,168,69.54,178.71,77.08,193.81,86.39,188.44Z" style="fill:#263238"></path><path d="M86.39,186.49c8.37-4.84,15.16-16.59,15.16-26.26s-6.79-13.59-15.16-8.76-15.16,16.6-15.16,26.26S78,191.32,86.39,186.49Z" style="fill:#455a64"></path><path d="M86.39,179.2c4.89-2.82,8.85-9.69,8.85-15.33s-4-7.93-8.85-5.11-8.85,9.69-8.85,15.33S81.5,182,86.39,179.2Z" style="fill:#00C3FF"></path><path d="M86.39,179.2c4.89-2.82,8.85-9.69,8.85-15.33s-4-7.93-8.85-5.11-8.85,9.69-8.85,15.33S81.5,182,86.39,179.2Z" style="opacity:0.30000000000000004"></path><path d="M86.39,172A5.83,5.83,0,0,0,89,167.46c0-1.67-1.18-2.35-2.63-1.52a5.83,5.83,0,0,0-2.63,4.56C83.76,172.18,84.94,172.85,86.39,172Z" style="fill:#00C3FF"></path><path d="M106.47,132.67a3.18,3.18,0,0,0-1.43,2.49c0,.91.64,1.28,1.43.82a3.14,3.14,0,0,0,1.44-2.48C107.91,132.59,107.27,132.22,106.47,132.67Z" style="fill:#263238"></path><path d="M67.12,155.4a3.18,3.18,0,0,0-1.43,2.49c0,.91.64,1.28,1.43.83a3.18,3.18,0,0,0,1.43-2.49C68.55,155.32,67.91,155,67.12,155.4Z" style="fill:#263238"></path><path d="M106.47,178a3.18,3.18,0,0,0-1.43,2.49c0,.91.64,1.28,1.43.83a3.16,3.16,0,0,0,1.44-2.49C107.91,177.88,107.27,177.51,106.47,178Z" style="fill:#263238"></path><path d="M67.12,200.69a3.18,3.18,0,0,0-1.43,2.49c0,.91.64,1.28,1.43.83a3.18,3.18,0,0,0,1.43-2.49C68.55,200.61,67.91,200.24,67.12,200.69Z" style="fill:#263238"></path><path d="M29.93,168.17v-8.12c0-2.56,1.79-3.6,4-2.32l18.32,10.58a8.87,8.87,0,0,1,4,6.95v8.12c0,2.56-1.8,3.6-4,2.32L33.94,175.12A8.86,8.86,0,0,1,29.93,168.17Z" style="fill:#37474f"></path><path d="M52,183.35c1.33.77,2.41.15,2.41-1.39v-7.48A5.34,5.34,0,0,0,52,170.31l-3.23-1.87v13Z" style="fill:#263238"></path><path d="M34.24,160.08c-1.33-.77-2.41-.14-2.41,1.39V169a5.32,5.32,0,0,0,2.41,4.17L37.48,175V162Z" style="fill:#263238"></path></g></g><g id="freepik--speakers--inject-3"><g id="freepik--speaker--inject-3"><path d="M442.92,166.34l44.15,25.49a9.58,9.58,0,0,1,4.33,7.5v88.5a9.58,9.58,0,0,1-4.33,7.5l-32,18.45a9.57,9.57,0,0,1-8.66,0L402.3,288.29a9.58,9.58,0,0,1-4.33-7.5v-88.5a9.58,9.58,0,0,1,4.33-7.5l32-18.45A9.57,9.57,0,0,1,442.92,166.34Z" style="fill:#37474f"></path><path d="M446.45,215.28,402.3,189.79c-2.39-1.38-4.33-.26-4.33,2.5v88.5a9.58,9.58,0,0,0,4.33,7.5l44.15,25.49c2.39,1.38,4.33.26,4.33-2.5v-88.5A9.58,9.58,0,0,0,446.45,215.28Z" style="fill:#455a64"></path><path d="M455.11,215.28l32-18.45c2.39-1.38,4.33-.26,4.33,2.5v88.5a9.58,9.58,0,0,1-4.33,7.5l-32,18.45c-2.39,1.38-4.33.26-4.33-2.5v-88.5A9.58,9.58,0,0,1,455.11,215.28Z" style="fill:#263238"></path><path d="M434.26,166.34l-32,18.45c-2.39,1.38-2.39,3.62,0,5l44.15,25.49a9.57,9.57,0,0,0,8.66,0l32-18.45c2.39-1.38,2.39-3.62,0-5l-44.15-25.49A9.57,9.57,0,0,0,434.26,166.34Z" style="fill:#37474f"></path><path d="M424.37,291.55c-10-5.8-18.18-19.9-18.18-31.5s8.14-16.3,18.18-10.5,18.19,19.9,18.19,31.5S434.42,297.34,424.37,291.55Z" style="fill:#263238"></path><path d="M424.37,289.44c-9-5.22-16.36-17.9-16.36-28.34s7.33-14.66,16.36-9.45,16.37,17.91,16.37,28.34S433.41,294.66,424.37,289.44Z" style="fill:#37474f"></path><path d="M424.37,281.58c-5.27-3.05-9.55-10.46-9.55-16.55s4.28-8.56,9.55-5.51,9.56,10.45,9.56,16.54S429.65,284.62,424.37,281.58Z" style="fill:#00C3FF"></path><path d="M424.37,281.58c-5.27-3.05-9.55-10.46-9.55-16.55s4.28-8.56,9.55-5.51,9.56,10.45,9.56,16.54S429.65,284.62,424.37,281.58Z" style="opacity:0.30000000000000004"></path><path d="M424.37,273.82a6.27,6.27,0,0,1-2.83-4.91c0-1.81,1.27-2.54,2.83-1.64a6.28,6.28,0,0,1,2.84,4.92C427.21,274,425.94,274.73,424.37,273.82Z" style="fill:#00C3FF"></path><path d="M424.37,242.82C417,238.54,411,228.15,411,219.59s6-12,13.41-7.74,13.41,14.68,13.41,23.23S431.78,247.1,424.37,242.82Z" style="fill:#263238"></path><path d="M424.37,241.27c-6.66-3.85-12.06-13.21-12.06-20.9s5.4-10.82,12.06-7,12.07,13.21,12.07,20.9S431,245.12,424.37,241.27Z" style="fill:#37474f"></path><path d="M424.37,235.47a15.57,15.57,0,0,1-7-12.2c0-4.49,3.15-6.31,7-4.07a15.59,15.59,0,0,1,7.05,12.2C431.42,235.9,428.26,237.72,424.37,235.47Z" style="fill:#00C3FF"></path><path d="M424.37,235.47a15.57,15.57,0,0,1-7-12.2c0-4.49,3.15-6.31,7-4.07a15.59,15.59,0,0,1,7.05,12.2C431.42,235.9,428.26,237.72,424.37,235.47Z" style="opacity:0.30000000000000004"></path><path d="M424.37,229.75a4.64,4.64,0,0,1-2.09-3.62c0-1.34.94-1.88,2.09-1.21a4.62,4.62,0,0,1,2.1,3.62C426.47,229.88,425.53,230.42,424.37,229.75Z" style="fill:#00C3FF"></path><path d="M402.7,194.72a3.4,3.4,0,0,1,1.55,2.68c0,1-.7,1.38-1.55.89a3.42,3.42,0,0,1-1.55-2.68C401.15,194.62,401.85,194.22,402.7,194.72Z" style="fill:#263238"></path><path d="M445.17,219.25a3.42,3.42,0,0,1,1.55,2.68c0,1-.7,1.38-1.55.89a3.4,3.4,0,0,1-1.55-2.68C443.62,219.15,444.31,218.75,445.17,219.25Z" style="fill:#263238"></path><path d="M402.7,280.24a3.43,3.43,0,0,1,1.55,2.68c0,1-.7,1.39-1.55.9a3.46,3.46,0,0,1-1.55-2.68C401.15,280.15,401.85,279.75,402.7,280.24Z" style="fill:#263238"></path><path d="M445.17,304.77a3.46,3.46,0,0,1,1.55,2.68c0,1-.7,1.39-1.55.9a3.43,3.43,0,0,1-1.55-2.68C443.62,304.68,444.31,304.28,445.17,304.77Z" style="fill:#263238"></path><path d="M474.88,269.53l-7.59,4.38c-2.39,1.38-4.33.26-4.33-2.5V248.58a9.58,9.58,0,0,1,4.33-7.5l7.59-4.38c2.39-1.38,4.33-.26,4.33,2.5V262A9.58,9.58,0,0,1,474.88,269.53Z" style="fill:#37474f"></path><path d="M477.18,240.74c0-1.65-1.16-2.33-2.6-1.5l-7,4a5.76,5.76,0,0,0-2.6,4.5v4l12.19-7Z" style="fill:#263238"></path><path d="M465,269.87c0,1.65,1.17,2.32,2.6,1.5l7-4a5.73,5.73,0,0,0,2.6-4.5v-4l-12.19,7Z" style="fill:#263238"></path></g><g id="freepik--speaker--inject-3"><path d="M443.05,106.38,484,130a8.88,8.88,0,0,1,4,6.95v48a8.88,8.88,0,0,1-4,6.95L454.34,209a8.86,8.86,0,0,1-8,0l-40.91-23.62a8.86,8.86,0,0,1-4-6.95v-48a8.86,8.86,0,0,1,4-7L435,106.38A8.86,8.86,0,0,1,443.05,106.38Z" style="fill:#37474f"></path><path d="M446.32,151.73l-40.91-23.62c-2.22-1.28-4-.24-4,2.32v48a8.86,8.86,0,0,0,4,6.95L446.32,209c2.21,1.28,4,.24,4-2.32v-48A8.88,8.88,0,0,0,446.32,151.73Z" style="fill:#455a64"></path><path d="M454.34,151.73,484,134.63c2.21-1.28,4-.24,4,2.32v48a8.88,8.88,0,0,1-4,6.95L454.34,209c-2.21,1.28-4,.24-4-2.32v-48A8.88,8.88,0,0,1,454.34,151.73Z" style="fill:#263238"></path><path d="M435,106.38l-29.62,17.1c-2.22,1.28-2.22,3.35,0,4.63l40.91,23.62a8.86,8.86,0,0,0,8,0L484,134.63c2.21-1.28,2.21-3.35,0-4.63l-40.91-23.62A8.86,8.86,0,0,0,435,106.38Z" style="fill:#37474f"></path><path d="M425.86,188.44C416.56,183.06,409,170,409,159.25s7.55-15.1,16.85-9.73,16.85,18.44,16.85,29.19S435.17,193.81,425.86,188.44Z" style="fill:#263238"></path><path d="M425.86,186.49c-8.37-4.84-15.16-16.59-15.16-26.26s6.79-13.59,15.16-8.76S441,168.07,441,177.73,434.24,191.32,425.86,186.49Z" style="fill:#455a64"></path><path d="M425.86,179.2c-4.88-2.82-8.85-9.69-8.85-15.33s4-7.93,8.85-5.11,8.86,9.69,8.85,15.33S430.75,182,425.86,179.2Z" style="fill:#00C3FF"></path><path d="M425.86,179.2c-4.88-2.82-8.85-9.69-8.85-15.33s4-7.93,8.85-5.11,8.86,9.69,8.85,15.33S430.75,182,425.86,179.2Z" style="opacity:0.30000000000000004"></path><path d="M425.86,172a5.83,5.83,0,0,1-2.63-4.56c0-1.67,1.18-2.35,2.63-1.52a5.8,5.8,0,0,1,2.63,4.56C428.49,172.18,427.32,172.85,425.86,172Z" style="fill:#00C3FF"></path><path d="M405.78,132.67a3.18,3.18,0,0,1,1.43,2.49c0,.91-.64,1.28-1.43.82a3.16,3.16,0,0,1-1.43-2.48C404.35,132.59,405,132.22,405.78,132.67Z" style="fill:#263238"></path><path d="M445.13,155.4a3.19,3.19,0,0,1,1.44,2.49c0,.91-.65,1.28-1.44.83a3.18,3.18,0,0,1-1.43-2.49C443.7,155.32,444.34,155,445.13,155.4Z" style="fill:#263238"></path><path d="M405.78,178a3.18,3.18,0,0,1,1.43,2.49c0,.91-.64,1.28-1.43.83a3.18,3.18,0,0,1-1.43-2.49C404.35,177.88,405,177.51,405.78,178Z" style="fill:#263238"></path><path d="M445.13,200.69a3.19,3.19,0,0,1,1.44,2.49c0,.91-.65,1.28-1.44.83a3.18,3.18,0,0,1-1.43-2.49C443.7,200.61,444.34,200.24,445.13,200.69Z" style="fill:#263238"></path><path d="M482.33,168.17v-8.12c0-2.56-1.8-3.6-4-2.32L460,168.31a8.86,8.86,0,0,0-4,6.95v8.12c0,2.56,1.79,3.6,4,2.32l18.32-10.58A8.87,8.87,0,0,0,482.33,168.17Z" style="fill:#37474f"></path><path d="M460.29,183.35c-1.33.77-2.41.15-2.41-1.39v-7.48a5.34,5.34,0,0,1,2.41-4.17l3.24-1.87v13Z" style="fill:#263238"></path><path d="M478,160.08c1.33-.77,2.41-.14,2.41,1.39V169a5.32,5.32,0,0,1-2.41,4.17L474.77,175V162Z" style="fill:#263238"></path></g></g></g><g id="freepik--character-9--inject-3"><g id="freepik--Character--inject-3"><path d="M302.28,322a11.9,11.9,0,0,0-7.48,1.49,39.85,39.85,0,0,0-8.63,7.45c-.87,1.26-1.94.61-2.95-1.79a7.55,7.55,0,0,1,1.39-7.85c2-2.2,4.07-3.89,4.84-5.34s4.35-1.95,6.51-1.68c0,0,.74-.09,1.47-.15a53,53,0,0,0,8.23-1.69l2.23,9.62S304.5,322.14,302.28,322Z" style="fill:#b16668"></path><path d="M287.61,339.78a5.68,5.68,0,0,1-4.61.33c-3-1.47-4.32-6.84-3.89-10,.52-3.8,2.29-5.94,2.67-8.22s-.25-5.42.4-7.47a5.82,5.82,0,0,1,3.3-3.53,3.53,3.53,0,0,1,3.09.14l.9.49Z" style="fill:#263238"></path><path d="M280.59,330.81c.11-4.16,3.83-7.46,3.22-11.45s1-9.54,6.43-7.59a19.92,19.92,0,0,1,2.95,1.31,3.59,3.59,0,0,0,1.3.57,5.7,5.7,0,0,0,1.7,0,1.87,1.87,0,0,1,.78,0,.55.55,0,0,1,.46.54l-1.42.15a.61.61,0,0,0-.33.1c-.24.21,0,.59,0,.91s-.39.81-.77,1.07l-1.47,1a6.89,6.89,0,0,0-1.35,1c-.13.15-.31.61,0,.73s1.12-.38,1.4-.48a1,1,0,0,1,.5-.09c.31,0,.48.36.63.64a5.48,5.48,0,0,0,1.68,2.07,6.46,6.46,0,0,0,1.92.78.22.22,0,0,1,.18.26c0,.19-.22.31-.39.41a34.82,34.82,0,0,1-3.12,1.55,6,6,0,0,0-2.57,1.75,6.89,6.89,0,0,0-.82,1.81,18.8,18.8,0,0,0-.53,3.19c-.18,1.61-.37,3.23-.61,4.83a9.44,9.44,0,0,1-.59,2.41,3.83,3.83,0,0,1-5.66,1.38,6.09,6.09,0,0,1-2.29-2.38A13,13,0,0,1,280.59,330.81Z" style="fill:#455a64"></path><path d="M291.13,331.61a.28.28,0,0,1-.1.09c-.16.1-.26,0-.37-.09a7.8,7.8,0,0,0-.84-.68,9.38,9.38,0,0,0-1.73-.95,9.94,9.94,0,0,0-2.58-.69l-.27,0a.4.4,0,0,1-.38-.42.41.41,0,0,1,.43-.39,8.32,8.32,0,0,1,1.78.32,10.07,10.07,0,0,1,3.47,1.68c.27.21.66.47.69.85A.5.5,0,0,1,291.13,331.61Z" style="fill:#fafafa"></path><path d="M291.46,329.39c-.21.25-.5-.12-.67-.27a6.15,6.15,0,0,0-.81-.64,8.11,8.11,0,0,0-1.68-.87A8.66,8.66,0,0,0,286,327h-.1a.41.41,0,0,1-.37-.44.4.4,0,0,1,.43-.37,8.79,8.79,0,0,1,1.77.34,9.17,9.17,0,0,1,3.35,1.74,1.07,1.07,0,0,1,.48.68.57.57,0,0,1-.06.36Z" style="fill:#fafafa"></path><path d="M292,327.27a.51.51,0,0,1-.16.09c-.17.05-.26-.14-.36-.25l-.36-.35a7.25,7.25,0,0,0-.77-.6,9,9,0,0,0-1.59-.85,9.59,9.59,0,0,0-2-.61h0a.41.41,0,0,1,.12-.81,9.28,9.28,0,0,1,1.79.48,9,9,0,0,1,3.24,1.94,1.19,1.19,0,0,1,.35.45.36.36,0,0,1,0,.25.39.39,0,0,1-.11.17Z" style="fill:#fafafa"></path><path d="M288.84,320.9a.34.34,0,0,1,.17,0c.18,0,.23.2.3.33l.26.43a6.36,6.36,0,0,0,.6.77,9,9,0,0,0,1.33,1.21,9.17,9.17,0,0,0,1.83,1.1h0a.4.4,0,0,1,.22.53.41.41,0,0,1-.53.23,9.21,9.21,0,0,1-1.62-.91,9.06,9.06,0,0,1-2.66-2.68,1.26,1.26,0,0,1-.23-.53.34.34,0,0,1,0-.24.5.5,0,0,1,.15-.14Z" style="fill:#fafafa"></path><path d="M280.58,331.57a12.22,12.22,0,0,0,1.21,5.67,6.09,6.09,0,0,0,2.29,2.38,3.83,3.83,0,0,0,5.66-1.38,9.44,9.44,0,0,0,.59-2.41c.1-.68.19-1.37.28-2.07C287.42,330,281.83,331,280.58,331.57Z" style="fill:#fafafa"></path><path d="M353.91,340.38c-.65,2-1.54,4.48-.69,7.09a36.6,36.6,0,0,0,4.61,9.52c.92,1.08.08,1.89-2.31,2.21a7,7,0,0,1-6.71-3.12c-1.48-2.35-2.51-4.58-3.63-5.62s-1-2.83-.25-4.7.86-11.91.86-11.91l9.94,1.06S354.57,338.42,353.91,340.38Z" style="fill:#b16668"></path><path d="M343.68,350.12a4.24,4.24,0,0,0-.17,1.5,6.53,6.53,0,0,0,1.89,2.53,5.68,5.68,0,0,1,1.84,3.55,10,10,0,0,0,3.23,5.71,14.29,14.29,0,0,0,7.93,3.1c3.58.33,4.41-1.61,4.41-1.61s.71-1.84-.06-2.37S343.68,350.12,343.68,350.12Z" style="fill:#263238"></path><path d="M345.27,341.57a19.27,19.27,0,0,1-1.22,4.95c-.37,1-.85,2.51-.37,3.6.62,1.67,2.65,2.72,3.5,5s1.92,6.29,6.14,8.41,8,1.65,9.19.6.76-2.45-1.68-4.79-5.24-8.49-5.24-8.49a17.91,17.91,0,0,1-1.45-5.64l1.35-2.37c0-.75-6.57-2.1-7.37-1.29l-.28,3.16-.51-3.19Z" style="fill:#455a64"></path><path d="M350.72,361.66a5.9,5.9,0,0,1,4.65-3.93c3.85-.8,5.59.88,6.42,1.91,1,1.22,2.23,3.56.79,4.6s-3.58,1.31-7,.4A8.48,8.48,0,0,1,350.72,361.66Z" style="fill:#fafafa"></path><path d="M349,349.93a.4.4,0,0,0,.35-.07c.53-.43,3.54-1.74,5.73-.43.19-.24.07-.58-.33-1a7.25,7.25,0,0,0-5.92.83.36.36,0,0,0,0,.54A.39.39,0,0,0,349,349.93Z" style="fill:#fafafa"></path><path d="M355.93,351.59a1.21,1.21,0,0,0-.44-1,7.32,7.32,0,0,0-5.61.94.37.37,0,0,0-.05.54.42.42,0,0,0,.22.13.4.4,0,0,0,.35-.07C350.92,351.7,353.77,350.46,355.93,351.59Z" style="fill:#fafafa"></path><path d="M354.48,347.5a.71.71,0,0,0-.21-1.06c-2.53-1.39-5.81,0-6.51.56a.39.39,0,0,0,0,.55.5.5,0,0,0,.22.13.44.44,0,0,0,.35-.08C348.86,347.14,352.29,345.66,354.48,347.5Z" style="fill:#fafafa"></path><path d="M358.59,356.46a2.22,2.22,0,0,0-.78-1.29A7.26,7.26,0,0,0,352,356a.36.36,0,0,0,0,.54.36.36,0,0,0,.21.13.4.4,0,0,0,.35-.07C353.07,356.19,356.39,354.75,358.59,356.46Z" style="fill:#fafafa"></path><path d="M351.1,354.45a.42.42,0,0,0,.36-.07c.52-.42,3.46-1.71,5.64-.47a1.35,1.35,0,0,0-.56-1.07,7.35,7.35,0,0,0-5.61.94.37.37,0,0,0,0,.54A.39.39,0,0,0,351.1,354.45Z" style="fill:#fafafa"></path><path d="M304.36,312.68l15.78-4.29s-8.66-21.46-11.52-31.49a53.49,53.49,0,0,1-1.36-19.63c1.21-10.41,31.44-1.64,31.44-1.64l2.28.43c6,13.05,16.43,29.26,22.77,42.23,1.95,4,1.75,5.26,0,12.27-2.49,9.82-4.79,14.94-8.26,25.15-2.36.44-7.87.2-9.68-1.5-.25-9.9-2-20.8,4.09-30.15-6.29-6.77-12.6-14.77-18.89-22.39,1.2,5.54,5,23.71,4.92,31.6,0,5-1.75,8.59-7.11,9-7.47.6-23.85,0-23.85,0C303.32,321.26,302.88,315.1,304.36,312.68Z" style="fill:#37474f"></path><path d="M320.14,308.39s.81,4.06,3,6.38a10.19,10.19,0,0,1-3.37-3.07c-1.36-2-7.78.18-12.81.27Z" style="fill:#263238"></path><path d="M331,281.68l-.91-5.1a26.94,26.94,0,0,0,5.72-7.77,28.67,28.67,0,0,1-4.11,7.88l.39,3.67,11.34,16.39Z" style="fill:#263238"></path><path d="M345.54,317.72a55.68,55.68,0,0,1,2.43-7.09,16.5,16.5,0,0,1,3.84-5.22,9.18,9.18,0,0,1-1.94-1.35A28.68,28.68,0,0,0,345.54,317.72Z" style="fill:#263238"></path><g id="freepik--Top--inject-3"><path d="M361.35,169a9.89,9.89,0,0,0-1.06-4.59,11.46,11.46,0,0,0-2.32-2.55,3.61,3.61,0,0,0-1.74-1,8.84,8.84,0,0,1-1.47-.12c-.59-.21-1-.84-1.66-.8a1.14,1.14,0,0,0-1,.87,3.51,3.51,0,0,0,0,1.37c.26,1.89.51,3.79.77,5.69.09.63.38,3.59-1,2.53a2.91,2.91,0,0,1-.65-.82,5.79,5.79,0,0,0-1.68-1.93,1.12,1.12,0,0,0-1.26-.08,1.17,1.17,0,0,0-.11,1.33c.31.72.7,1.37.93,2.08a21.81,21.81,0,0,0,1,2.51c.54,1.19,1.69,2.32,2.07,3.58,1,3.15-3,19.62-3,19.62-3.07,4.21-8.81,12-13.17,14.49-7.85,4.51,2.78,9.41,6,13.27.82-2.19,2-4.08,5.19-8.25,3.06-4,5.57-7.26,9.11-11.78,2.14-2.73,2.2-3.42,2.64-6.72.51-3.81,1.09-14.92,1.35-18.42.16-2.26.7-3.93.87-6.17A32.45,32.45,0,0,0,361.35,169Z" style="fill:#b16668"></path><path d="M333.87,211.18c1.34-.77,3.32-.91,5.46-3.17s7.18-7.74,7.18-7.74,5.95,1.34,7.83,6.7c0,0-7.7,10.2-9.23,13.43s-3.19,7.06-3.19,7.06S330.17,219.11,333.87,211.18Z" style="fill:#263238"></path><path d="M341.57,224.13c-.7-5.13-1.58-12.81-8.26-13.07s-12.56.1-12.56.1c-2.42.29-6.73.35-9.92,1.14a25,25,0,0,0-6.73,2.7l2.72,30.71s.33,7,0,18.22c7.35,4.66,29.17,1.37,36.93-3.31C343.75,250.72,342.27,229.21,341.57,224.13Z" style="fill:#00C3FF"></path><path d="M341.57,224.13c-.7-5.13-1.58-12.81-8.26-13.07s-12.56.1-12.56.1c-2.42.29-6.73.35-9.92,1.14a25,25,0,0,0-6.73,2.7l2.72,30.71s.33,7,0,18.22c7.35,4.66,29.17,1.37,36.93-3.31C343.75,250.72,342.27,229.21,341.57,224.13Z" style="fill:#fff;opacity:0.7000000000000001"></path><path d="M340.84,182.17v-.08a2.27,2.27,0,0,0-.78-2.08,2.78,2.78,0,0,0-2.54.17,3.36,3.36,0,0,0-.33-3.26,2.83,2.83,0,0,0-3-.59,8.29,8.29,0,0,0-2.67,1.73,6.15,6.15,0,0,0-.24-1.91,2.05,2.05,0,0,0-1.29-1.34,3.07,3.07,0,0,0-2.1.47c-1.77.89-3.74,2.25-5.68,2.63a17.38,17.38,0,0,0-5.69,2.19,4.3,4.3,0,0,0-1.28,1.12,3.65,3.65,0,0,0-.54,2.29,4,4,0,0,0,.12.78,2,2,0,0,0-.55-.41,1.94,1.94,0,0,0-2.64,1l2.45,1.21a3.56,3.56,0,0,0-1.82,1.06c-1.22,1.34-.38,5.38,1.33,9.31,0,0,2.55,6.08,3.16,7.28.7,1.39,1.22,2.55,1.22,2.55l-.23-4.39,4.18-.37a16,16,0,0,1,3.64-.2,4.8,4.8,0,0,0,3.2-1,52.15,52.15,0,0,0,5.65-4.18,15.83,15.83,0,0,0,3.05-3.23,6.81,6.81,0,0,0,1.23-4.21,5.17,5.17,0,0,1,0-1.92,4.78,4.78,0,0,1,.95-1.42A5.93,5.93,0,0,0,340.84,182.17Z" style="fill:#263238"></path><path d="M326.26,187.34a23.09,23.09,0,0,1-2.82-.57l-.26-.07a6.31,6.31,0,0,1-4.66,4.21,15.92,15.92,0,0,1,.13,5.33,3,3,0,0,1-.41,1.07,1.3,1.3,0,0,1-.93.59c-.52,0-.73-.27-.89-.68a12.43,12.43,0,0,0-.78-1.49,2.94,2.94,0,0,0-.46-.58A2.52,2.52,0,0,0,311,196c-1.11,2.55.94,5.93,2.8,6.45,3.22.9,3.92-1.29,3.92-1.29l.61,11.47c2.69,5,12.52,6.32,10.35-.64l-.12-3.49a20.34,20.34,0,0,0,4.3.08c2.33-.44,3.48-2.42,4.11-5,1-4.11.88-11.94.56-15a22.79,22.79,0,0,0-.48-3.29c.1.32-2.2,1.23-2.46,1.32a14.56,14.56,0,0,1-3.21.68,30.26,30.26,0,0,1-3.81.13C327.13,187.42,326.7,187.39,326.26,187.34Z" style="fill:#b16668"></path><path d="M326.75,201.66l4,.67a1.93,1.93,0,0,1-2.25,1.68A2.11,2.11,0,0,1,326.75,201.66Z" style="fill:#9a4a4d"></path><path d="M327.22,202.48a1.29,1.29,0,0,0-.39.08,2.11,2.11,0,0,0,1.65,1.45h.14s0-.07,0-.12A1.43,1.43,0,0,0,327.22,202.48Z" style="fill:#f28f8f"></path><path d="M328.57,208.51s-5.26-.88-7.12-1.8a6.07,6.07,0,0,1-2.61-2.41,8.38,8.38,0,0,0,1.53,2.9c1.4,1.66,8.24,2.7,8.24,2.7Z" style="fill:#9a4a4d"></path><path d="M327.33,195.12a1.08,1.08,0,1,1-1.11-1.08A1.1,1.1,0,0,1,327.33,195.12Z" style="fill:#263238"></path><path d="M326.73,191.64l-2.45.75a1.33,1.33,0,0,1,.88-1.63A1.25,1.25,0,0,1,326.73,191.64Z" style="fill:#263238"></path><path d="M336.48,192.1l-2.48-.33a1.21,1.21,0,0,1,1.37-1.06A1.27,1.27,0,0,1,336.48,192.1Z" style="fill:#263238"></path><path d="M336.32,194.75a1.09,1.09,0,0,1-1,1.15,1.12,1.12,0,1,1,1-1.15Z" style="fill:#263238"></path><polygon points="330.86 194.08 331.04 200.91 334.85 199.81 330.86 194.08" style="fill:#9a4a4d"></polygon><path d="M310.27,213.16c-8.47,1-6.58,1.16-13.31,7.65-6.55,6.32-16.37,15.52-17.4,18.77s2.63,24.57,4.44,29.25c1.74,4.51,3.33,10.6,7.1,12.36,1.63.76,4.16.46,5.84,0a2.83,2.83,0,0,0,1.83-1.2,2.35,2.35,0,0,0-.21-2.27,17.6,17.6,0,0,0-1.48-1.87,6.94,6.94,0,0,1-1.59-3.58c-.09-1.68,1.38-.42,2.17-.07a6.14,6.14,0,0,0,2.22.39c.55,0,1.22,0,1.47-.51a1,1,0,0,0-.15-1,3.22,3.22,0,0,0-.78-.69,13.13,13.13,0,0,1-3.46-3.63c-.64-1-2.74-2.37-3.6-3.19-.63-.6-2-1.23-2.23-2.16s-.27-18.1-.27-18.1l17-16Z" style="fill:#b16668"></path><path d="M310.83,212.3a13.53,13.53,0,0,0-6.73,1.56c-3.41,1.83-14.47,14-14.47,14s1.92,8,7.76,9.52l11.68-10C311.47,224.37,312.63,220.14,310.83,212.3Z" style="fill:#263238"></path></g></g></g><g id="freepik--character-8--inject-3"><g id="freepik--character--inject-3"><path d="M184.63,322.76a12.34,12.34,0,0,1,7.68,1.53,41,41,0,0,1,8.85,7.65c.89,1.29,2,.62,3-1.84a7.7,7.7,0,0,0-1.42-8.05c-2.09-2.26-4.17-4-5-5.49s-4.46-2-6.68-1.71c0,0-.76-.1-1.51-.16a53.73,53.73,0,0,1-8.44-1.73l-2.29,9.87S182.35,322.91,184.63,322.76Z" style="fill:#ffa8a7"></path><path d="M199.68,341a5.89,5.89,0,0,0,4.73.34c3.05-1.51,4.43-7,4-10.24-.53-3.9-2.35-6.09-2.74-8.44s.26-5.56-.4-7.66a5.93,5.93,0,0,0-3.39-3.62,3.61,3.61,0,0,0-3.17.14l-.93.5Z" style="fill:#263238"></path><path d="M206.88,331.81c-.11-4.28-3.92-7.66-3.3-11.75s-1-9.79-6.6-7.79a20.87,20.87,0,0,0-3,1.34,3.74,3.74,0,0,1-1.34.59,6,6,0,0,1-1.74,0,2.17,2.17,0,0,0-.8,0,.58.58,0,0,0-.48.56l1.46.15a.58.58,0,0,1,.34.11c.25.21,0,.61,0,.93,0,.47.4.83.79,1.1l1.51,1a7.36,7.36,0,0,1,1.38,1c.14.16.33.63,0,.75s-1.15-.39-1.44-.49a.92.92,0,0,0-.51-.1c-.32.06-.5.38-.65.66A5.68,5.68,0,0,1,190.8,322a7.09,7.09,0,0,1-2,.8.35.35,0,0,0-.14.06.24.24,0,0,0-.05.2c0,.2.23.32.4.42a35.27,35.27,0,0,0,3.2,1.59,6.21,6.21,0,0,1,2.64,1.8,6.88,6.88,0,0,1,.84,1.85,19,19,0,0,1,.55,3.28c.18,1.65.38,3.31.62,5a9.93,9.93,0,0,0,.61,2.47,3.93,3.93,0,0,0,5.81,1.41,6.24,6.24,0,0,0,2.35-2.43A13.32,13.32,0,0,0,206.88,331.81Z" style="fill:#455a64"></path><path d="M196.07,332.63a.48.48,0,0,0,.11.09c.16.1.26,0,.38-.09a6.32,6.32,0,0,1,.85-.7,9.31,9.31,0,0,1,1.78-1,10.12,10.12,0,0,1,2.64-.71l.28,0a.42.42,0,0,0,.4-.44.41.41,0,0,0-.44-.39,8.66,8.66,0,0,0-1.83.32,10.41,10.41,0,0,0-3.56,1.72c-.28.22-.68.48-.71.88A.53.53,0,0,0,196.07,332.63Z" style="fill:#fafafa"></path><path d="M195.73,330.35c.22.25.52-.13.69-.28a7.51,7.51,0,0,1,.83-.66,8.77,8.77,0,0,1,1.72-.89,9.11,9.11,0,0,1,2.35-.59h.1a.42.42,0,0,0,.39-.45.42.42,0,0,0-.44-.39,10.2,10.2,0,0,0-5.26,2.14,1.07,1.07,0,0,0-.49.7.57.57,0,0,0,.06.36Z" style="fill:#fafafa"></path><path d="M195.22,328.17a.51.51,0,0,0,.16.09c.18.05.27-.14.38-.25s.24-.24.37-.36a7,7,0,0,1,.79-.62,9.81,9.81,0,0,1,3.72-1.49h0a.41.41,0,0,0,.35-.47.4.4,0,0,0-.47-.35,9.87,9.87,0,0,0-1.85.48,9.22,9.22,0,0,0-3.31,2,1.18,1.18,0,0,0-.37.46.39.39,0,0,0,0,.26.41.41,0,0,0,.12.17Z" style="fill:#fafafa"></path><path d="M198.42,321.64a.35.35,0,0,0-.18-.05c-.18,0-.23.2-.3.33a4,4,0,0,1-.27.44,8,8,0,0,1-.61.8,9,9,0,0,1-1.37,1.24,9.36,9.36,0,0,1-1.87,1.12l0,0a.41.41,0,0,0-.22.54.4.4,0,0,0,.54.23,10.27,10.27,0,0,0,4.39-3.68,1.2,1.2,0,0,0,.24-.54.36.36,0,0,0,0-.25.54.54,0,0,0-.16-.14Z" style="fill:#fafafa"></path><path d="M206.89,332.58a12.51,12.51,0,0,1-1.23,5.83,6.24,6.24,0,0,1-2.35,2.43,3.93,3.93,0,0,1-5.81-1.41,9.93,9.93,0,0,1-.61-2.47c-.1-.7-.19-1.41-.28-2.12C199.88,330.94,205.61,332,206.89,332.58Z" style="fill:#fafafa"></path><path d="M131.65,341.63c.67,2,1.58,4.6.71,7.27a37.51,37.51,0,0,1-4.74,9.77c-.94,1.11-.08,1.93,2.38,2.27a7.16,7.16,0,0,0,6.88-3.2c1.52-2.42,2.58-4.7,3.73-5.77s1-2.9.25-4.83-.88-12.21-.88-12.21L129.78,336S131,339.62,131.65,341.63Z" style="fill:#ffa8a7"></path><path d="M142.15,351.62a4.5,4.5,0,0,1,.17,1.54,6.75,6.75,0,0,1-1.94,2.6,5.78,5.78,0,0,0-1.89,3.64,10.23,10.23,0,0,1-3.31,5.86,14.73,14.73,0,0,1-8.13,3.18c-3.68.34-4.54-1.65-4.54-1.65s-.72-1.89.07-2.44S142.15,351.62,142.15,351.62Z" style="fill:#263238"></path><path d="M140.52,342.85a19.07,19.07,0,0,0,1.25,5.07c.38,1,.87,2.58.38,3.7-.64,1.71-2.73,2.79-3.59,5.14s-2,6.44-6.31,8.62-8.22,1.69-9.43.62-.77-2.52,1.73-4.92c2.65-2.55,5.37-8.71,5.37-8.71a18.19,18.19,0,0,0,1.49-5.78L130,344.15c0-.77,6.74-2.15,7.56-1.32l.29,3.24.52-3.28Z" style="fill:#455a64"></path><path d="M134.92,363.47a6,6,0,0,0-4.77-4c-4-.82-5.74.9-6.59,2-1,1.26-2.29,3.65-.81,4.72s3.68,1.34,7.22.41A8.78,8.78,0,0,0,134.92,363.47Z" style="fill:#fafafa"></path><path d="M136.7,351.43a.39.39,0,0,1-.36-.08c-.55-.44-3.63-1.79-5.88-.44-.2-.24-.07-.59.34-1a7.41,7.41,0,0,1,6.07.86.4.4,0,0,1,0,.56A.42.42,0,0,1,136.7,351.43Z" style="fill:#fafafa"></path><path d="M129.58,353.13a1.24,1.24,0,0,1,.45-1,7.53,7.53,0,0,1,5.76,1,.39.39,0,0,1,0,.56.5.5,0,0,1-.22.13.43.43,0,0,1-.36-.08C134.72,353.25,131.8,352,129.58,353.13Z" style="fill:#fafafa"></path><path d="M131.06,348.94a.73.73,0,0,1,.22-1.09c2.6-1.44,6,0,6.68.57a.39.39,0,0,1,0,.56.42.42,0,0,1-.22.13.4.4,0,0,1-.36-.08C136.83,348.56,133.32,347,131.06,348.94Z" style="fill:#fafafa"></path><path d="M126.85,358.12a2.3,2.3,0,0,1,.8-1.32,7.43,7.43,0,0,1,6,.9.38.38,0,0,1,0,.55.46.46,0,0,1-.22.14.43.43,0,0,1-.36-.08C132.51,357.85,129.11,356.37,126.85,358.12Z" style="fill:#fafafa"></path><path d="M134.53,356.07a.43.43,0,0,1-.36-.08c-.54-.43-3.56-1.75-5.8-.48a1.4,1.4,0,0,1,.58-1.1,7.55,7.55,0,0,1,5.76,1,.38.38,0,0,1,0,.55A.44.44,0,0,1,134.53,356.07Z" style="fill:#fafafa"></path><path d="M182.5,313.21l-16.2-4.41s8.88-22,11.83-32.31a54.9,54.9,0,0,0,1.39-20.15c-1.24-10.67-32.26-1.68-32.26-1.68l-2.34.44c-6.19,13.39-16.86,30-23.36,43.34-2,4.1-1.8,5.4,0,12.58,2.56,10.08,4.92,15.34,8.48,25.81,2.42.46,8.08.21,9.93-1.53.26-10.16,2-21.35-4.2-30.95,6.46-6.94,12.94-15.15,19.39-23-1.23,5.68-5.15,24.33-5.05,32.43.05,5.09,1.8,8.82,7.3,9.26,7.66.61,24.47,0,24.47,0C183.56,322,184,315.68,182.5,313.21Z" style="fill:#37474f"></path><path d="M166.3,308.8s-.83,4.17-3.08,6.55a10.45,10.45,0,0,0,3.45-3.15c1.39-2.08,8,.18,13.15.28Z" style="fill:#263238"></path><path d="M155.17,281.4l.93-5.25a27.41,27.41,0,0,1-5.86-8,29.17,29.17,0,0,0,4.21,8.08l-.4,3.77-11.63,16.82Z" style="fill:#263238"></path><path d="M140.24,318.37a57.52,57.52,0,0,0-2.5-7.27,16.83,16.83,0,0,0-3.93-5.35,9.42,9.42,0,0,0,2-1.4A29.63,29.63,0,0,1,140.24,318.37Z" style="fill:#263238"></path><path d="M102.31,182.6a1.25,1.25,0,0,1,1.39.32,7.55,7.55,0,0,1,1,1.14l1.9,2.36a1.53,1.53,0,0,0,.66.55,1.68,1.68,0,0,1,1-1.15c.47-.2,1.08,0,1.5-.29a1.59,1.59,0,0,0,.33-.47c.72-1.27,2.3-1.32,3.55-.91-.36-2.4-.52-3.32-.71-5.43-.09-1,.13-2,.89-2.21,1.16-.28,1.77,1.1,2,2.31.47,2.33.85,3.66,1.37,6.35.14.74.47,1.79.66,2.53.42,1.58,1.5,3,1.4,4.65a5.74,5.74,0,0,1-.66,2.09c-.21.43-.38.79-.55,1.12-.69,1.36-.53,2.33-.09,4.75s3.11,13.59,3.11,13.59,17.24-3.1,22.85-4.26a13.48,13.48,0,0,1,10.42,2.12l-13.48,11.71s-18.92,1.61-23,2.24-5.74-.46-7-7.88c-.57-3.43-.78-5.87-1.28-10.26-.66-5.85-.36-5.57-1-9.44a31.76,31.76,0,0,0-1.63-3.44,22.65,22.65,0,0,1-1-3c-.75-2.65-2.74-4.77-3.78-7.32C101.94,183.84,101.71,183,102.31,182.6Z" style="fill:#ffa8a7"></path><path d="M153.89,209.57a60.4,60.4,0,0,0-7.62-.53c-2.84.13-25.18,4.86-25.18,4.86s-4.33,6.37-9.68,7c0,0,.17,3.05,2.18,4.44s6.55.4,12.9,0,20.27-1.54,20.27-1.54Z" style="fill:#00C3FF"></path><path d="M114.14,189.31l1.06,1.14c-1,.21-1.5,1-2.32,1.54s-2.29,1.88-2.31,3.24a2.71,2.71,0,0,1-.28-1.58c0-.2.16-.56.06-.77s-.29-.17-.46-.23a2.27,2.27,0,0,1-1.29-1.54,5.76,5.76,0,0,1-.11-2.11,5.59,5.59,0,0,0,.79,1.74c.28.45.78,1.24,1.41,1.14a1,1,0,0,0,.78-.59,2.58,2.58,0,0,0-.1-1.26l-.2-.95a3.68,3.68,0,0,0,1,1.16c.45.31,1.83.44,1.4-.49a2,2,0,0,0-.39-.52,4.57,4.57,0,0,1-1-1.36,2,2,0,0,1,0-1c.07-.29.3-.54.36-.81a2.3,2.3,0,0,0,.29,1.58,7.06,7.06,0,0,0,1,1.29Z" style="fill:#f28f8f"></path><path d="M113.81,185.14a1,1,0,0,0-1.08.72.62.62,0,0,1,.65-.23c.26.05.42.31.59.49a4.54,4.54,0,0,0,1.68,1.24,8.63,8.63,0,0,1,1.22.49,3,3,0,0,1,.92.83c-.09-.23-.12-.31-.18-.44a3.66,3.66,0,0,0-.26-.42,3.37,3.37,0,0,0-.7-.71,14.54,14.54,0,0,1-1.84-1.15C114.5,185.65,114.24,185.22,113.81,185.14Z" style="fill:#f28f8f"></path><path d="M121.09,213.9l-1.42-6.06a12.26,12.26,0,0,1-9.27,6.55,69,69,0,0,0,1.2,7.74A12,12,0,0,0,121.09,213.9Z" style="fill:#37474f"></path><path d="M180.27,223.08l-.81,7.92L178.88,247a66.14,66.14,0,0,1,1.4,15.7c-9.81,5.47-26.29,3.63-37.08-3.86,0,0,.45-31.51,2-39.08s4.29-10,9.55-10.2c5.56-.22,12.74.06,12.74.06l4.41.33S180.21,220.43,180.27,223.08Z" style="fill:#455a64"></path><path d="M171.93,209.9c5.89.32,8.79,2.18,14.78,9.36,5.84,7,14.62,17.18,15.3,20.53s-5.25,24.14-7.54,28.6c-2.22,4.3-4.45,10.18-8.38,11.52-1.71.59-4.19,0-5.81-.63a2.93,2.93,0,0,1-1.7-1.39,2.37,2.37,0,0,1,.46-2.24,16.73,16.73,0,0,1,1.67-1.7,6.94,6.94,0,0,0,2-3.39c.28-1.66-1.33-.57-2.14-.3a6.08,6.08,0,0,1-2.25.15c-.55,0-1.21-.15-1.41-.67a1,1,0,0,1,.25-1,3.52,3.52,0,0,1,.86-.61,13.08,13.08,0,0,0,3.82-3.24c.75-.92,3-2.06,3.92-2.78.7-.53,2.16-1,2.45-1.91s2.21-18,2.21-18l-15.23-17.75Z" style="fill:#ffa8a7"></path><path d="M171.93,209.9s-1.43,10.88,2.72,15.71,15.42,16.83,15.42,16.83,10.57-.28,12-1.17c0,0,1.13-.89-.85-4.94S189.06,220.16,186.49,217,182.34,210.19,171.93,209.9Z" style="fill:#00C3FF"></path><path d="M202.06,241.27s-8.95-2.88-12,1.17l-.78,8s6.32-1.8,10.62,1.14c0,0,.54-1.75,1.23-4.46A37.9,37.9,0,0,0,202.06,241.27Z" style="fill:#37474f"></path><path d="M168.76,179.58s2.65.3,3.68,2.27c.89,1.71.7,5.9-.31,10.49a41.83,41.83,0,0,1-2.61,8.64,3.45,3.45,0,0,1-2,1.67v-5.41l.09-3.78s-2.51-3.24-2.85-5.94c-.44-3.47.26-4.92.26-4.92Z" style="fill:#37474f"></path><path d="M165.37,185.8A10.11,10.11,0,1,1,155,175.94,10.12,10.12,0,0,1,165.37,185.8Z" style="fill:#37474f"></path><path d="M167.47,192.87c.93.76,1.62-1.3,2.36-2.12s3.21-2,4.51.62-1,6.33-2.81,7.25a2.89,2.89,0,0,1-4-1.38l0,12.56h0c-4.6,3.48-10.88,1.36-11-.43l-.08-3.71A21,21,0,0,1,152,206c-2.5-.32-4.11-2.25-4.92-4.92-1.32-4.29-1.2-10.78.23-19.21,2.72-2.23,11.84-2.81,17.78.73C164.81,190.06,166.54,192.1,167.47,192.87Z" style="fill:#ffa8a7"></path><path d="M145.18,175.29a.48.48,0,0,1,.36-.29.57.57,0,0,1,.34.14,18.07,18.07,0,0,0,2.25,1.43,8.08,8.08,0,0,1-.12-3c.1-.62.23-2,1-2.21.45-.1.86.26,1.2.57,3.11,2.76,7,1.34,10.7,1.35,3.06,0,6.79,1.16,8.25,4.1.67,1.34.81,2.78-.41,3.75A8.6,8.6,0,0,1,165,182.6c-6.06,1.23-14.21,3.54-18.87-2a5.31,5.31,0,0,1-1.3-2.78,4.37,4.37,0,0,1,.3-2.48Z" style="fill:#00C3FF"></path><path d="M145.18,175.29a.48.48,0,0,1,.36-.29.57.57,0,0,1,.34.14,18.07,18.07,0,0,0,2.25,1.43,8.08,8.08,0,0,1-.12-3c.1-.62.23-2,1-2.21.45-.1.86.26,1.2.57,3.11,2.76,7,1.34,10.7,1.35,3.06,0,6.79,1.16,8.25,4.1.67,1.34.81,2.78-.41,3.75A8.6,8.6,0,0,1,165,182.6c-6.06,1.23-14.21,3.54-18.87-2a5.31,5.31,0,0,1-1.3-2.78,4.37,4.37,0,0,1,.3-2.48Z" style="opacity:0.2"></path><path d="M156.49,205.66s5.52-1.25,7.43-2.33a6.32,6.32,0,0,0,2.62-2.71,8.64,8.64,0,0,1-1.45,3.16c-1.37,1.85-8.56,3.35-8.56,3.35Z" style="fill:#f28f8f"></path><path d="M157.56,191.8a1.12,1.12,0,0,0,1.13,1.12,1.16,1.16,0,1,0-1.13-1.12Z" style="fill:#263238"></path><path d="M158.64,187.57l2.4,1.26a1.42,1.42,0,0,0-.6-1.88A1.31,1.31,0,0,0,158.64,187.57Z" style="fill:#263238"></path><path d="M158.31,197.76,152.69,200a3,3,0,0,0,3.9,1.79A3.17,3.17,0,0,0,158.31,197.76Z" style="fill:#b16668"></path><path d="M147.57,188.76,149.7,187a1.31,1.31,0,0,0-1.89-.24A1.43,1.43,0,0,0,147.57,188.76Z" style="fill:#263238"></path><path d="M148.31,191.7a1.11,1.11,0,1,0,2.22-.06,1.11,1.11,0,1,0-2.22.06Z" style="fill:#263238"></path><polygon points="153.94 190.51 153.74 197.2 150.22 196.1 153.94 190.51" style="fill:#f28f8f"></polygon><path d="M146.17,180.58a5.31,5.31,0,0,1-1.3-2.78,4.37,4.37,0,0,1,.3-2.48c-.65,1.72-.29,4.43,3.64,6s8.83.6,11.5.31a8.29,8.29,0,0,1,4.73.93C159,183.83,150.83,186.14,146.17,180.58Z" style="opacity:0.2"></path><path d="M168.9,196.71a1.28,1.28,0,1,0,1.34-1.22A1.27,1.27,0,0,0,168.9,196.71Z" style="fill:#263238"></path><path d="M156.59,201.81a2.91,2.91,0,0,1-1.79.12,2.45,2.45,0,0,1,2.5-1.87,2.2,2.2,0,0,1,.89.22A3.07,3.07,0,0,1,156.59,201.81Z" style="fill:#f28f8f"></path></g></g><g id="freepik--character-7--inject-3"><g id="freepik--character--inject-3"><g id="freepik--Bottom--inject-3"><path d="M307.46,423.15a7.09,7.09,0,0,1,.6,3.65c-.1,1.09-.81,2.48-.6,5s.73,3.27.93,5a7.25,7.25,0,0,1-1.06,5.06c-1.08,1.62-3.5,2.91-7.93,2.58-3.59-.26-5.1-2.27-5.1-4.39Z" style="fill:#263238"></path><path d="M305.7,421c-2.26,1.21-5.95-.21-8.7-1.68l-2.89-17.08,12.5-2.77Z" style="fill:#ffc4c3"></path><path d="M306.61,418a9.38,9.38,0,0,1,.16,1.4c.1.84.32,1.64.49,2.47l.12.65c.29,1.66-.13,3.36-.16,5a27.67,27.67,0,0,0,.82,5.91c.67,3.52.66,5.71-2.48,8-1.66,1.21-3.37,1.34-5.41,1.31-1.55,0-3.68-.42-4.46-1.25a3.73,3.73,0,0,1-1.22-2.13c0-3.72,1.51-8,1.92-11.67a17.77,17.77,0,0,0,.18-3c-.08-1.23-.46-2.46-.55-3.71a1.63,1.63,0,0,1,1.9-2c1.63-.16,3.27-.26,4.91-.31a1.44,1.44,0,0,1,1.1.26,2,2,0,0,1,.36,1.2c.07.42.36.91.79.84a.7.7,0,0,0,.51-.59c.06-.28.25-2.42.25-2.7C305.84,417.71,306.42,417.64,306.61,418Z" style="fill:#37474f"></path><path d="M294.11,438.8a4.55,4.55,0,0,1,.59-2.24c1.83-3.26,11-3,13.69.4-.08,2.06-.36,3.22-2.3,4.65C304.5,442.8,302,443,300,442.93a8,8,0,0,1-4.48-1.39A3,3,0,0,1,294.11,438.8Z" style="fill:#455a64"></path><path d="M282.18,421.54c-1.91,4.13-4.9,2.46-8.79-.18l-1.89-24.7,12,3.23Z" style="fill:#ffc4c3"></path><path d="M257.61,431a2.8,2.8,0,0,0,.11,2c.28.59,3.4,2.35,7.6,2.07a17.61,17.61,0,0,0,8.69-3,10,10,0,0,1,5.34-1.38c2.09-.12,4.82-1.15,5.27-2.13a4.54,4.54,0,0,0-.07-2.64Z" style="fill:#263238"></path><path d="M272.3,417.93a8.85,8.85,0,0,0-.4.94,7.52,7.52,0,0,1-2.19,3,24.13,24.13,0,0,1-4.54,2.69c-1,.5-2.09.67-3.13,1.08a18.11,18.11,0,0,0-3.34,1.63,3,3,0,0,0,0,5c1.62.95,5.88,2,10.35.71,2.44-.69,5.14-3.29,8.34-3.54,2-.16,5.88-.73,7.19-2.27.41-2.25-.17-2.86-.7-4.73a15.51,15.51,0,0,1-.51-3.24c0-.57.29-2.24-.93-2.39l-.07,1.24s-.21.43-1.46.7c-.4.09-.7.63-.9,1.13s-.31.87-.73.88a.79.79,0,0,1-.65-.47,5.34,5.34,0,0,1-.26-.8,3.17,3.17,0,0,0-2-1.8,9.63,9.63,0,0,0-2.25-.38c-.59-.07-1.07-.3-1.56.21A2,2,0,0,0,272.3,417.93Z" style="fill:#37474f"></path><path d="M283.61,421.06a12.83,12.83,0,0,0,.29,1.37c.53,1.87,1.11,2.48.7,4.73-1,1.18-3.51,1.79-5.54,2.09C278.38,425.41,280.78,422.53,283.61,421.06Z" style="fill:#455a64"></path><path d="M304.78,323c.53,16,.31,22.41.24,51.84a50.79,50.79,0,0,1,2.17,13.91c.2,7.37-.58,22.61-.58,22.61s-6.1,3.77-11.26.77c0,0-4.15-22.4-5.74-32.68-1.39-9-2.82-22.23-2.82-22.23l-2,18.76a75,75,0,0,1,.34,14.26c-.34,4.83-1.66,21.82-1.66,21.82s-5.52,3.85-11.34.76c0,0-2.71-33.81-2.8-38.19-.09-5,1.85-55.74,1.85-55.74Z" style="fill:#455a64"></path><path d="M286.79,357.18l-3-17.47s-6.58-.57-10.21-4.24c0,0,.65,3.6,8.91,5.75l3,17.62-.7,17.1Z" style="fill:#37474f"></path><path d="M258.62,427.11a16.1,16.1,0,0,1,3-1.3,7.19,7.19,0,0,1,6.64,7.38,13.74,13.74,0,0,1-9.55-.82C256.8,431.27,257,428.22,258.62,427.11Z" style="fill:#455a64"></path></g><g id="freepik--top--inject-3"><path d="M278.71,285c-2.78-3.4-11.77-14.3-12.87-16.62A71.33,71.33,0,0,1,263.75,258a63.07,63.07,0,0,1-.09-11.24c.23-2,1.6-3,2.82-4.33a11.64,11.64,0,0,0,1.77-3.06,8.52,8.52,0,0,1,.87-1.6,1,1,0,0,0,.26-.93.89.89,0,0,0-.95-.46,2.81,2.81,0,0,0-1.68.93c-.46.46-.82,1-1.27,1.48a1.23,1.23,0,0,1-.6.41c-1.41.32.12-2.21.28-2.57.81-1.79,1.41-3.7,2.11-5.54a3.12,3.12,0,0,0,.27-1.15,1,1,0,0,0-.59-1c-.54-.2-1.09.24-1.65.31a6.37,6.37,0,0,1-1.49-.21,4.43,4.43,0,0,0-2.12.49,11.06,11.06,0,0,0-2.63,1.4,7.62,7.62,0,0,0-2.37,3.81,24.06,24.06,0,0,0-.91,5c-1.3,15.37-1.78,21.49-1.18,27.09.2,1.81.45,4.75,1.41,6.31,1.48,2.42,4.3,6.67,7.65,11.67,1.5,2.24,4.82,6.67,7.61,10.79,1.58,2.32,3.19,6,3.82,6.2C277.15,301.37,282.06,291.33,278.71,285Z" style="fill:#ffc4c3"></path><path d="M329,231.54a1.32,1.32,0,0,0-1.35.58,9.17,9.17,0,0,0-.86,1.36l-1.49,2.74a1.52,1.52,0,0,1-.57.68,1.69,1.69,0,0,0-1.19-1c-.52-.12-1.09.21-1.57,0a1.37,1.37,0,0,1-.42-.41c-1-1.15-2.59-.91-3.78-.26-.07-2.51-.08-3.47-.28-5.65-.09-1-.5-2-1.31-2.07-1.23-.08-1.59,1.44-1.61,2.71-.05,2.45-.18,3.87-.22,6.7,0,.78-.14,1.9-.2,2.68-.13,1.68-.51,3.4-.11,5a5.76,5.76,0,0,0,1.06,2,7.28,7.28,0,0,1,.63,1.13c.56,1.09.64,2.12.64,4.65s-.63,14.32-.63,14.32c-3.17,4.65-9.1,13.2-13.72,16-8.32,5.14,3.33,10.08,7,14.14.81-2.4,2-4.49,5.33-9.1,3.17-4.38,5.77-8,9.44-13,2.21-3,2.44-2.84,2.62-7.35a84.39,84.39,0,0,0-.2-9.18c-.41-6.06-.67-5.73-.71-9.78a36.66,36.66,0,0,1,1-3.79,23.72,23.72,0,0,0,.49-3.24c.28-2.83,1.91-5.35,2.49-8.13C329.65,232.74,329.72,231.79,329,231.54Z" style="fill:#ffc4c3"></path><path d="M317.58,241.5l-.87,1.35c1,0,1.71.76,2.64,1.13s2.67,1.49,2.94,2.87a2.76,2.76,0,0,0,0-1.65c-.08-.2-.28-.55-.21-.78s.26-.23.42-.32a2.31,2.31,0,0,0,1-1.8,5.82,5.82,0,0,0-.28-2.15,6,6,0,0,1-.48,1.9c-.2.51-.56,1.4-1.22,1.42a1.06,1.06,0,0,1-.9-.45,2.74,2.74,0,0,1-.13-1.3l0-1a4,4,0,0,1-.78,1.36c-.41.4-1.78.78-1.52-.24a2.25,2.25,0,0,1,.3-.6,4.79,4.79,0,0,0,.81-1.57,2,2,0,0,0-.18-1c-.12-.29-.41-.5-.52-.76a2.37,2.37,0,0,1,0,1.66,7.93,7.93,0,0,1-.8,1.49Z" style="fill:#ffa8a7"></path><path d="M317.14,237.21a1,1,0,0,1,1.23.53.68.68,0,0,0-.71-.12c-.24.11-.36.4-.5.62a4.7,4.7,0,0,1-1.48,1.56,8.49,8.49,0,0,0-1.14.73,2.86,2.86,0,0,0-.78,1,3.48,3.48,0,0,1,.1-.48,3.41,3.41,0,0,1,.18-.48,3.32,3.32,0,0,1,.59-.85,16.78,16.78,0,0,0,1.65-1.5C316.54,237.86,316.72,237.37,317.14,237.21Z" style="fill:#ffa8a7"></path><path d="M280.82,282.23c-1.41-.88-3.86-1.47-6.09-4s-7.89-8.21-7.89-8.21-6.48,1.24-8.7,7c0,0,7.87,12.19,9.41,15.73s3.32,6.84,3.32,6.84S284.55,290.93,280.82,282.23Z" style="fill:#455a64"></path><g id="freepik--Chest--inject-3"><path d="M270.48,297.12c.23-6.88,4-13.91,7-14.67l14.9-1.09c2.79.63,15.59,2.87,15.59,2.87l-.56,15.56a199.54,199.54,0,0,0-2.62,20.4s1.37,7,1.63,10.76c-7.35,4.66-28.67,4.45-36.44-.22C270,318,270.31,302.24,270.48,297.12Z" style="fill:#263238"></path><path d="M293.13,250c-.34-1.74,1.17-2.78,2.17-2.21a1.76,1.76,0,0,1,1.16-2,2.51,2.51,0,0,1,2.35.67,2.15,2.15,0,0,1,2-1.35,2.47,2.47,0,0,1,2.52,1.59s2.31-.14,5,2.81c1.56,1.71,2,2.89,1.49,4.25-.39.94-1.62.73-1.62.73a2.14,2.14,0,0,1,.56,2.61,1.26,1.26,0,0,1-2,.52,1.69,1.69,0,0,1-.18,2.14,1.84,1.84,0,0,1-2,.35c.25.08-.2,2.64-2.46,1.46C300,261.18,293.13,250,293.13,250Z" style="fill:#37474f"></path><path d="M303.3,246.77a8.07,8.07,0,0,1,4.45-.73c2.44.34,2.69,1.23,2.23,1.62s-2.32-.13-4.18,1.05S303.3,246.77,303.3,246.77Z" style="fill:#37474f"></path><path d="M302.89,247.05a4.82,4.82,0,0,1,1.39-3c1.32-1.31,2.11-.26,1.6.74a8.65,8.65,0,0,0-.66,2.44Z" style="fill:#37474f"></path><path d="M308.17,254.56s-2-3.92-4.78-5.21a7.65,7.65,0,0,1,3.6,2.45A4.75,4.75,0,0,1,308.17,254.56Z" style="fill:#263238"></path><path d="M295.3,247.83c.1,2.26,3.16,6,5.71,7C301,254.85,296.88,251.49,295.3,247.83Z" style="fill:#263238"></path><path d="M299.27,245.82a2.55,2.55,0,0,0-.46.71c.06,1.52,1.8,4.32,3.19,5.43C302,252,299.31,248.44,299.27,245.82Z" style="fill:#263238"></path><path d="M284.52,268.63a9.08,9.08,0,0,0,3.54,1.83c1.14.21,2.15.86,3.28,1.17a10.93,10.93,0,0,0,7.39-.53c3.28-1.51,4.38-5.28,4.42-8.89s-1.13-6.83-4.57-7.91c-.4-2.19-2.23-3.87-4.21-4.87a13.24,13.24,0,0,0-4.21-1.27,13.8,13.8,0,0,0-8.08,1.42,7.77,7.77,0,0,0-4,6.88,16,16,0,0,0,1.76,6A16.18,16.18,0,0,0,284.52,268.63Z" style="fill:#37474f"></path><path d="M289.67,257.42a23.42,23.42,0,0,0,2.89-.15l.27,0a6.37,6.37,0,0,0,4,4.88,15.72,15.72,0,0,0-.91,5.28,2.81,2.81,0,0,0,.24,1.12,1.29,1.29,0,0,0,.84.73c.51.12.77-.16,1-.54a12.32,12.32,0,0,1,1-1.37,2.87,2.87,0,0,1,.54-.51,2.54,2.54,0,0,1,4,1.47c.73,2.7-1.81,5.76-3.74,6-3.33.41-3.71-1.87-3.71-1.87l-.34,10.34c-4.49,4-13.84,2.21-11.62-.08l.09-4.55a20.06,20.06,0,0,1-4.29-.55c-2.25-.78-3.11-2.92-3.36-5.56-.39-4.23.89-12,1.66-15a24.66,24.66,0,0,1,1-3.21,9.13,9.13,0,0,0,2.26,1.68,14.49,14.49,0,0,0,3.09,1.14,28.42,28.42,0,0,0,3.77.7A12.08,12.08,0,0,0,289.67,257.42Z" style="fill:#ffc4c3"></path><path d="M298.22,276.41a2,2,0,1,0,.58-4,.33.33,0,0,0-.09.65,1.34,1.34,0,0,1,1.14,1.53,1.35,1.35,0,0,1-2.68-.39.31.31,0,0,0-.27-.37.32.32,0,0,0-.37.27A2,2,0,0,0,298.22,276.41Z" style="fill:#37474f"></path><path d="M284.28,278.11s5.36-.1,7.35-.74a6.05,6.05,0,0,0,2.95-2,8.26,8.26,0,0,1-1.95,2.66c-1.63,1.46-8.38,1.48-8.38,1.48Z" style="fill:#ffa8a7"></path><path d="M287.58,265a1,1,0,1,0,1.94.34,1,1,0,0,0-.79-1.17A1,1,0,0,0,287.58,265Z" style="fill:#263238"></path><path d="M289.41,259.77l2.25,1.25a1.34,1.34,0,0,0-.52-1.8A1.26,1.26,0,0,0,289.41,259.77Z" style="fill:#263238"></path><path d="M279.47,259.39l2.4-.77a1.22,1.22,0,0,0-1.55-.8A1.29,1.29,0,0,0,279.47,259.39Z" style="fill:#263238"></path><path d="M293.84,262.3l7.76,4a3,3,0,0,0-2.53.85l-5.47-3.06Z" style="fill:#263238"></path><path d="M278.68,263.29a1,1,0,1,0,1.16-.84A1,1,0,0,0,278.68,263.29Z" style="fill:#263238"></path><path d="M284.28,273.86a1.6,1.6,0,0,1,1.62-1.58,1,1,0,0,1,.25,0,1.62,1.62,0,0,1-1,1.45A1.72,1.72,0,0,1,284.28,273.86Z" style="fill:#ffc4c3"></path><path d="M274.36,260a2.19,2.19,0,0,0,.35,1.23.92.92,0,0,1,.14.44,21.3,21.3,0,0,0,.27,3.22,3.47,3.47,0,0,0,3,2.71,4.69,4.69,0,0,0,1.15.07h.09a3.13,3.13,0,0,0,1-.23l.06,0,.09,0,.11-.06.1,0,.12-.07.1-.07a1.66,1.66,0,0,0,.21-.16,4.25,4.25,0,0,0,.92-1.07c.64-1,.74-2.56,1.57-2.62h.2c1.08.18.71,1.82,1.14,3.09a4.09,4.09,0,0,0,3.6,3l.3.05.24,0h.58l.18,0,.18,0,.11,0a2.71,2.71,0,0,0,.68-.2l.24-.11a3.62,3.62,0,0,0,.41-.27,3.54,3.54,0,0,0,.87-1,18.39,18.39,0,0,0,1.1-3,1.4,1.4,0,0,1,.25-.42,2.19,2.19,0,0,0,.69-1,1,1,0,0,0-.51-1.08l-.56-.16a18,18,0,0,0-5.72-.78c-1.88.23-2.59.72-3.6.55s-1.47-.85-3.1-1.66a15.65,15.65,0,0,0-5.3-1.07l-.54,0C274.78,259.12,274.4,259.52,274.36,260Zm11.74,2.9a1.51,1.51,0,0,1,.57-.35l.1,0h.06l.27-.09.25-.06a6.53,6.53,0,0,1,.81-.13l.32,0a7.3,7.3,0,0,1,.81,0h.19a4.62,4.62,0,0,1,3.13,1.11c.36.43-.06,2-.35,2.8l0,.06,0,.06a2.56,2.56,0,0,1-.12.32l-.09.2h0a3.37,3.37,0,0,1-.17.32h0l-.06.11a.43.43,0,0,0,0,.07l-.05.07-.06.09-.08.1-.08.1-.1.11a2.76,2.76,0,0,1-2.6.79,3.37,3.37,0,0,1-2.43-1.37h0a3.64,3.64,0,0,1-.6-1.77A3.73,3.73,0,0,1,286.1,262.92ZM276,260.55a1.6,1.6,0,0,1,.47-.21h0l.2-.05.12,0H278l.28,0h.1l.1,0a7.63,7.63,0,0,1,.79.2,5,5,0,0,1,2.69,1.69,4.05,4.05,0,0,1-.27,2.49,4,4,0,0,1-.25.59l0,.05,0,0,0,0a.43.43,0,0,1,0,.07l-.09.14-.09.12,0,0-.06.08L281,266h0a2.77,2.77,0,0,1-2.76.8,3.23,3.23,0,0,1-1.26-.51,3.73,3.73,0,0,1-1.3-2.91C275.56,262.5,275.55,260.85,276,260.55Z" style="fill:#263238"></path><path d="M284.13,263.42l-1.19,6.77-3.63-1.66,4.38-5.24A1,1,0,0,1,284.13,263.42Z" style="fill:#ffa8a7"></path><path d="M287.46,272l-4,.19a1.93,1.93,0,0,0,2,1.94A2.12,2.12,0,0,0,287.46,272Z" style="fill:#b16668"></path><path d="M286.9,272.77a1.23,1.23,0,0,1,.37.12,2.08,2.08,0,0,1-1.8,1.25h-.14s0-.08,0-.12A1.42,1.42,0,0,1,286.9,272.77Z" style="fill:#ffa8a7"></path></g><path d="M301.3,283.05a63.85,63.85,0,0,0,9.72-9.82s1.52,6.76,8,8.39c0,0-2.53,3.89-5,7.79s-6.2,10.5-7.31,12-3.73-1.59-5.44-6.89S300.33,283.82,301.3,283.05Z" style="fill:#455a64"></path></g></g></g><g id="freepik--character-6--inject-3"><g id="freepik--character--inject-3"><g id="freepik--bottom--inject-3"><path d="M195.54,429.45a4.82,4.82,0,0,0-.06,2.6c.25.52,1.81,2.25,5,2.87s7.57,0,9.45-.11a87.86,87.86,0,0,1,9.68.86c3,.4,5.23-.25,6.33-1.32a2,2,0,0,0,.44-1.56,8,8,0,0,0-.31-2.1Z" style="fill:#37474f"></path><path d="M225.57,427.59c.06.25.11.5.16.75a12.64,12.64,0,0,1,.27,3.83,3.48,3.48,0,0,1-2.27,1.72,11.77,11.77,0,0,1-6.38.12,45.18,45.18,0,0,0-7.5-.46,46.37,46.37,0,0,1-6.55.33,15.73,15.73,0,0,1-4.82-1c-1.3-.56-2.62-1.27-2.93-2.6-.39-2.81.79-4.05,2.13-4.83s3.21-.73,5.24-.86c1.83-.12,3.16-.13,4.79-.25a22.52,22.52,0,0,0,4.12-.79c1.22-.39,2.55-1.74,3.07-1.8,0,0,8.14-.06,8.92,0s1.17,2.86,1.28,3.47.1,1,.23,1.44C225.42,427,225.5,427.29,225.57,427.59Z" style="fill:#455a64"></path><path d="M228.53,384.69c-.11,2-.38,3.92-.61,5.87-.39,3.28-.81,6.54-1.24,9.81q-.7,5.36-1.43,10.69c-.39,2.84-.78,5.67-1.19,8.51-.12.82-.24,1.63-.37,2.45a3.72,3.72,0,0,1-2.61,3,13.85,13.85,0,0,1-3.22.49,9.4,9.4,0,0,0-3.54.81c.53-1.58,2.5-2.1,1.73-3-.54-.62-1.45-.45-1.51-1.37s-.08-1.44-.13-2.24c-.15-2.6-2.71-36.66-2.75-37.44C213.77,381.17,228.53,384.69,228.53,384.69Z" style="fill:#9e6767"></path><path d="M233.24,409.68a9,9,0,0,0,1.49,4c1.45,1.93,3.44,2.41,4.69,3a30.14,30.14,0,0,1,3.91,2.48c1.33.89,1.77,1.6,3.66,2.4a6.49,6.49,0,0,0,5.44-.83c1.12-.92,1.43-1.48.77-3.41s-7.09-.74-7.09-.74Z" style="fill:#37474f"></path><path d="M251,407.68c.58,0,1.16,2.33,1.56,5.69.18,1.5,1.49,4.57-.33,6.1a5.56,5.56,0,0,1-5.87.54c-1.94-1.28-3.35-2.49-6-4-2.3-1.28-5-1.42-6.81-4.8a3,3,0,0,1,1-4.3c2.22-1.29,3.67-1,8.32.28C244.46,407.66,250.44,407.65,251,407.68Z" style="fill:#455a64"></path><path d="M248.46,371.49c2.2,12.55,2,25.51,2.59,36.55,0,1.09-5.52,5.17-7.9,2.32-.15-.21-10.58-35.92-10.58-35.92Z" style="fill:#9e6767"></path><path d="M251.05,408c.67,3.31-5.52,5.17-7.9,2.32-.15-.21-10.58-35.92-10.58-35.92" style="fill:#9e6767"></path><path d="M248.83,368.64s-.76-22.61-.54-32.2c.13-6-.19-9.37-.43-13.57a100.7,100.7,0,0,0-2.64-15.93s-34.83-4-35.24,8c-.49,14.35.19,45.74.32,49.49.32,8.74.6,14.06,1.36,22.34,5.31,1.29,13.17.49,17.36-1.08.15-4,.24-6.31.24-6.31l.92-20.75s.31,3.75.73,8.89,2.1,9.88,2.81,13.18c3.33,1.55,13.69.14,16.36-2.79A49.38,49.38,0,0,0,248.83,368.64Z" style="fill:#37474f"></path><path d="M209.8,341.07c4.72,1.11,14.27.94,14.27.94s-.1,20.69-1,22.91-12.09,1.71-13.3-.13A180.48,180.48,0,0,1,209.8,341.07Z" style="fill:#263238"></path><path d="M242.43,327.26s-2,5.76-9.59,8.22l-2.66,23.12.73-16.2.54-8.72A21.22,21.22,0,0,0,242.43,327.26Z" style="fill:#263238"></path></g><g id="freepik--top--inject-3"><path d="M270.06,208.23a1.41,1.41,0,0,0-1.45.63,8.54,8.54,0,0,0-.91,1.44l-1.59,2.92a1.62,1.62,0,0,1-.61.73,1.82,1.82,0,0,0-1.27-1c-.55-.13-1.16.23-1.67,0a1.57,1.57,0,0,1-.45-.44c-1-1.23-2.76-1-4-.29-.08-2.67-.09-3.69-.3-6-.1-1.07-.53-2.16-1.4-2.21-1.31-.08-1.69,1.54-1.72,2.89,0,2.62-.19,4.14-.23,7.14,0,.84-.15,2-.22,2.87-.14,1.79-.54,3.62-.11,5.36a6.25,6.25,0,0,0,1.13,2.13,7.46,7.46,0,0,1,.67,1.2c.59,1.17.69,2.27.68,5s-.66,15.26-.66,15.26c-3.39,5-9.71,14.08-14.64,17.12-8.87,5.48,3.56,10.75,7.45,15.08.86-2.56,2.12-4.78,5.68-9.7,3.38-4.68,6.16-8.58,10.06-13.91,2.37-3.23,2.6-3,2.8-7.84a87,87,0,0,0-.22-9.79c-.43-6.46-.7-6.1-.75-10.42a38.5,38.5,0,0,1,1.1-4.05,25.68,25.68,0,0,0,.52-3.45c.3-3,2-5.7,2.65-8.67C270.7,209.51,270.77,208.5,270.06,208.23Z" style="fill:#9e6767"></path><polygon points="224.7 258.54 224.78 269.8 236.15 269.68 236.34 256.61 224.7 258.54" style="fill:#9e6767"></polygon><path d="M248,269.2c-.9-3-4.74-5.42-8.71-5.54-.89,0-3,0-3,0-.45,1.84-6.72,2.75-11.54,1.61-1.45.38-7.52,1-8.73,1.45-3.46,1.15-5.3,5.27-5.84,16.57,0,0-.95,23.26-.63,38.49,6.1,3.21,16.89,3,23.59,2.29,10.51-1.06,14.35-5.36,14.35-5.36-.44-6.2-.36-13.66-.19-19.78.13-4.59.88-9.25,1.29-14.45C249.18,276.68,248.59,271.25,248,269.2Z" style="fill:#00C3FF"></path><path d="M248,269.2c-.9-3-4.74-5.42-8.71-5.54-.89,0-3,0-3,0-.45,1.84-6.72,2.75-11.54,1.61-1.45.38-7.52,1-8.73,1.45-3.46,1.15-5.3,5.27-5.84,16.57,0,0-.95,23.26-.63,38.49,6.1,3.21,16.89,3,23.59,2.29,10.51-1.06,14.35-5.36,14.35-5.36-.44-6.2-.36-13.66-.19-19.78.13-4.59.88-9.25,1.29-14.45C249.18,276.68,248.59,271.25,248,269.2Z" style="opacity:0.30000000000000004"></path><path d="M216.2,244.09s-3,4.56-2.74,5,2.65.71,2.65.71Z" style="fill:#874c4c"></path><path d="M224.37,229.56c-5.42.91-7.41,4.15-8.22,13.57a84,84,0,0,0,0,9.1c.34,4.11,1.11,5.14,1.93,6.06s5.8,1.2,8,.68c2.81-.65,9.17-2.61,12.29-7,3.67-5.13,4.13-11.54,1.3-15.33C233.08,227.81,226.58,229.19,224.37,229.56Z" style="fill:#9e6767"></path><path d="M218.06,258.29c.62.69,4.33,1.06,6.65.87l0-1.33A17.33,17.33,0,0,1,218.06,258.29Z" style="fill:#874c4c"></path><path d="M220.55,237.91a4.89,4.89,0,0,0,3.06,5.22,6.78,6.78,0,0,0-.47,2.39,2.05,2.05,0,0,0,.21,1.18.75.75,0,0,0,1.36,0,10.24,10.24,0,0,1,1.22-1.9,3.67,3.67,0,0,1,2.35-1.19c3.39-.22,3.62,4.21,2.2,6-2.33,2.9-4.12.8-4.12.8s-.59,3.65,3.26,7.28a5.77,5.77,0,0,0,3,1.09,7.11,7.11,0,0,0,3.66-.27c1.89-3.06,5.9-8.19,7.34-10.9s3-5.63,2.3-8.66a5,5,0,0,0-2.27-3.21,6.54,6.54,0,0,0,.68-2.72,2.5,2.5,0,0,0-3.39-2.35,3,3,0,0,0-4.74-3.16,2.88,2.88,0,0,0-5.59-1.3,3.94,3.94,0,0,0-6.91.59,5.7,5.7,0,0,0-3.87-.84,4,4,0,0,0-3.06,2.37,3.14,3.14,0,0,0,1,3.62c-1.24.07-2.2,1.72-2.21,3C215.56,235.86,216.2,239.06,220.55,237.91Z" style="fill:#263238"></path><path d="M217.07,266.46c-2.74-1.17-5.64-1.26-7.82-2.54-5.54-3.25-11.85-7.38-13.08-8.91a77.1,77.1,0,0,1-4.72-10.25,68.6,68.6,0,0,1-2.86-11.64c-.23-2.09.94-3.47,1.86-5.19a12.17,12.17,0,0,0,1.09-3.61,9.24,9.24,0,0,1,.51-1.87,1.11,1.11,0,0,0,0-1,.94.94,0,0,0-1.1-.24,2.92,2.92,0,0,0-1.51,1.37c-.36.6-.61,1.25-1,1.86a1.36,1.36,0,0,1-.52.57c-1.39.68-.42-2.33-.34-2.74.4-2.06.55-4.19.83-6.27a3.14,3.14,0,0,0,0-1.26,1.09,1.09,0,0,0-.85-.84c-.6-.07-1.06.51-1.63.73a7,7,0,0,1-1.6.15,4.7,4.7,0,0,0-2.07,1,11.16,11.16,0,0,0-2.39,2.1,8.1,8.1,0,0,0-1.52,4.54,25.3,25.3,0,0,0,.27,5.36c2.43,16.27,3.44,22.73,5.44,28.4.65,1.83,1.64,4.82,3,6.2,2.14,2.15,6,6.55,10.74,10.91,2.1,1.95,6.86,6.31,10.77,9.9,2.21,2,2.38,3,3.08,3C220.25,285.51,222.09,272.2,217.07,266.46Z" style="fill:#9e6767"></path></g></g></g><g id="freepik--character-5--inject-3"><g id="freepik--character--inject-3"><g id="freepik--bottom--inject-3"><path d="M425.48,364.54c-1.6-7.13-1.48-21.42-1.86-27.9a21.74,21.74,0,0,0-5.3-13.3s1.88-19.33,2.53-27.94c1.6-20.93-1.49-22.87-3.48-27.11-.75-1.59-1.92-3-2.83-4.56a40.56,40.56,0,0,0-2.37-3.7l-28,.24A81.3,81.3,0,0,0,380,274.09c-2.94,10.5-4.26,37-2.46,53.36.79,7.19,5.77,39.56,5.88,40.54,0,.42,1.31,2.26,4.18,1.78s3.64-1.48,3.64-1.78c0-1.05.82-2.49.91-3.53.6-6.8,2.57-21.06,3.42-28A19.15,19.15,0,0,0,394,325.91l3.55-18.82a135,135,0,0,0,6.11,25.82c3.19,9.15,14.19,36.27,14.19,36.27,1,2.85,7.06,1.42,7.85-3.45Z" style="fill:#ffa8a7"></path><path d="M413.37,260.67s1.08,2.1,3,5.07a35.25,35.25,0,0,1,5.31,12.87c1.15,6.29-1.66,33.78-2.8,44.33a22.56,22.56,0,0,1,3.51,6.46s-5.32,8-18.31,5.47a116.22,116.22,0,0,1-6.49-27.78l-3.2,18.51c1.45,4.11,1.75,5.36,1.54,8.92a22.35,22.35,0,0,1-17.73,0c-2.62-14.5-2.1-32.36-1.55-41.5a118.19,118.19,0,0,1,6.68-32.19Z" style="fill:#455a64"></path><path d="M397.58,307.09l-1.82-19.19s-7.34-4.29-9.17-8.32a12.92,12.92,0,0,0,5.91,9.76l2.57,19-1,17.53Z" style="fill:#37474f"></path><path d="M367.33,382.38a2.82,2.82,0,0,0,.72,2.8,12.09,12.09,0,0,0,9,1.44c4.37-.85,5.54-1.81,7.2-3.4s3.18-3.24,5.14-3.81,4.59-1.45,5.15-2.06.31-3.15.31-3.15Z" style="fill:#263238"></path><path d="M392.43,363.3a.8.8,0,0,1,.79.56c.18.69.46,2.72.82,3.85a28.72,28.72,0,0,1,.77,7.37c-.16,1.32-3.93,2.38-5.81,3.24a18.26,18.26,0,0,0-5.16,3.76,13.53,13.53,0,0,1-7.94,3.5c-3.39.2-7.29-.65-8.26-2.17-1.21-1.88-1.49-3.73,3.39-6.39.92-.51,3.74-2.42,4.84-3.21a22.34,22.34,0,0,0,3.33-2.9,13.52,13.52,0,0,0,1.86-2.4,6.89,6.89,0,0,0,.52-1.57,15.85,15.85,0,0,0,.36-1.69,1.16,1.16,0,0,1,.39-.85,1.11,1.11,0,0,1,.65-.1,18.83,18.83,0,0,1,3.43.53,2,2,0,0,1,1.18.66,1.76,1.76,0,0,1,.29.92,6.14,6.14,0,0,0,.09,1,.53.53,0,0,0,.15.32c.18.16.45,0,.58-.14a12.37,12.37,0,0,0,1.25-1.72c.22-.31,1.28-.56,1.56-.82a8.44,8.44,0,0,0,.83-.61C392.62,364.09,392.45,363.71,392.43,363.3Z" style="fill:#37474f"></path><path d="M383.84,382.08a25.59,25.59,0,0,1,2.22-1.95h0s-5.23,2.47-7.72,1a2.15,2.15,0,0,1-.95-2.69c0-.41-3.91-1.91-5.41-2h0c-.4.26-.74.47-1,.59-4.88,2.66-4.6,4.51-3.39,6.39,1,1.52,3.82,2.56,8.21,2.28A14,14,0,0,0,383.84,382.08Z" style="fill:#455a64"></path><path d="M377.72,377.21c-3,1.46-1.67,2-.79,2s5.14-2.76,8.18-5.51,5.92-5.86,7.1-6.91c.44-.4.91-.88,1.33-1.32-.13-.68-.24-1.31-.32-1.63a.8.8,0,0,0-.79-.56l-.09,1.11a2.43,2.43,0,0,1-.89.53,4,4,0,0,0-1.5.9,12.37,12.37,0,0,1-1.25,1.72A35.62,35.62,0,0,1,377.72,377.21Z" style="fill:#263238"></path><path d="M377.13,378.76a.33.33,0,0,0,.19-.09.3.3,0,0,0,0-.43,7.41,7.41,0,0,0-5.88-1.89.32.32,0,0,0-.25.36.31.31,0,0,0,.36.25,6.94,6.94,0,0,1,5.32,1.7A.33.33,0,0,0,377.13,378.76Z" style="fill:#f0f0f0"></path><path d="M379.76,377A.27.27,0,0,0,380,377a.31.31,0,0,0,0-.44,7.48,7.48,0,0,0-5.83-2,.3.3,0,0,0-.26.35.3.3,0,0,0,.35.26,6.89,6.89,0,0,1,5.27,1.83A.35.35,0,0,0,379.76,377Z" style="fill:#f0f0f0"></path><path d="M382.17,375.12a.27.27,0,0,0,.19-.08.31.31,0,0,0,0-.44,7.49,7.49,0,0,0-5.88-1.89.31.31,0,0,0-.25.36.3.3,0,0,0,.36.25,6.9,6.9,0,0,1,5.31,1.7A.28.28,0,0,0,382.17,375.12Z" style="fill:#f0f0f0"></path><path d="M384.3,373.39a.26.26,0,0,0,.19-.07.32.32,0,0,0,0-.44,7.5,7.5,0,0,0-5.79-2.14.32.32,0,0,0-.27.35.31.31,0,0,0,.35.27,6.93,6.93,0,0,1,5.24,1.92A.26.26,0,0,0,384.3,373.39Z" style="fill:#f0f0f0"></path><path d="M386.58,371.37a.34.34,0,0,0,.19-.07.32.32,0,0,0,0-.44,7.64,7.64,0,0,0-6.33-2.13.32.32,0,0,0-.27.35.31.31,0,0,0,.35.27,7.06,7.06,0,0,1,5.77,1.91A.34.34,0,0,0,386.58,371.37Z" style="fill:#f0f0f0"></path><path d="M419.17,384.51a14,14,0,0,0,2.58,6.54,4.46,4.46,0,0,0,5.35,1.14c2-.78,4.4-2.5,4.65-5.16a16.68,16.68,0,0,0-.92-7.16Z" style="fill:#263238"></path><path d="M425.11,362.57c.74.13,1.69,4,2.7,7.93,1.08,4.27,2,5.48,2.93,9,1.05,4,.94,5.38-.16,8s-5.83,5.7-8.76,2.5c-2.39-2.6-2.75-5.32-3.09-9.39a85.83,85.83,0,0,0-1.28-9.65c-.55-3-1.9-5.66-1.22-6.09.11.44,1.24,3.67,1.76,3.22.25-.08.24-.51.08-1.29a1.35,1.35,0,0,1,.1-1,1.67,1.67,0,0,1,.88-.54c.8-.27,1.91-.67,2.74-.85.48-.11.21-.08.69-.17a4.31,4.31,0,0,1,1.85-.18c.28.1.34.35.44.63s.22.66.34.93c.05.11.24.33.36.3s.18-.57.13-.79-.07-.6-.12-.88S425.28,363.27,425.11,362.57Z" style="fill:#37474f"></path><path d="M430.39,378.1c.16.57,1,4.18.07,5s-2.07-2.06-2.07-2.06-2.78-.47-6.46,1.73c.28.61-.05,2.76-1.18,2.46s-2-4.24-2-4.3c.34,3.91.74,6.52,3.06,9,2.93,3.2,7.66.14,8.76-2.5s1.21-4,.16-8C430.63,379.07,430.51,378.46,430.39,378.1Z" style="fill:#455a64"></path><path d="M428.12,381.35c.21,1.46,1.45.79,1.39-1.3-.1-3.13-1.25-6-1.7-9.55-1-4-1.86-8-2.7-7.93.12.69.39,2.18.39,2.18.06.3.19,1.05.19,1.05.65,3,1.9,6.42,2.18,9.55C428.12,378.11,427.92,379.88,428.12,381.35Z" style="fill:#263238"></path><path d="M422.38,382.69a27.49,27.49,0,0,1-1.63-4.45c-.64-2.67-2.18-7.35-3.14-10.23-.27-.9-1.37-3.13-1.38-3.16-.49.32-.37,1.91.28,3.69s1.07,2.86,1.56,4.58c1.17,3.4,1.76,7.09,2.49,9S422.84,384.09,422.38,382.69Z" style="fill:#263238"></path><path d="M422.05,382.8l.11-.05a10,10,0,0,1,6.38-1.5.32.32,0,0,0,.08-.63,10.5,10.5,0,0,0-6.82,1.62.31.31,0,0,0-.07.43A.3.3,0,0,0,422.05,382.8Z" style="fill:#f0f0f0"></path><path d="M420.83,380l.1,0a13.27,13.27,0,0,1,7.44-1.84.31.31,0,0,0,.34-.28.31.31,0,0,0-.28-.34,13.63,13.63,0,0,0-7.84,1.93.32.32,0,0,0,.24.57Z" style="fill:#f0f0f0"></path><path d="M428.49,375.69a.31.31,0,0,0,.23-.25.31.31,0,0,0-.24-.37c-3.93-.78-8.65,1.62-8.79,1.72a.31.31,0,0,0-.08.44.32.32,0,0,0,.44.07s4.65-2.35,8.3-1.61Z" style="fill:#f0f0f0"></path><path d="M427.54,373.14a.31.31,0,0,0,.23-.24.31.31,0,0,0-.23-.37c-4.33-.95-8.29,1.87-8.43,2a.32.32,0,0,0-.05.44.31.31,0,0,0,.44.05s3.87-2.73,7.9-1.85Z" style="fill:#f0f0f0"></path><path d="M426.87,370a.3.3,0,0,0,.23-.23.31.31,0,0,0-.23-.38c-4.07-.95-8.32,2-8.47,2.07a.32.32,0,0,0-.06.44.31.31,0,0,0,.44.06s4.17-2.84,8-2Z" style="fill:#ebebeb"></path></g><g id="freepik--top--inject-3"><path d="M369.29,173.16a1.31,1.31,0,0,1,1.32.65,8,8,0,0,1,.78,1.41c.45.93.89,1.87,1.34,2.81a1.52,1.52,0,0,0,.53.71,1.69,1.69,0,0,1,1.25-.91c.52-.1,1.08.27,1.57.06a1.63,1.63,0,0,0,.44-.39c1-1.1,2.63-.78,3.79-.06.21-2.5.27-3.46.58-5.63.15-1,.61-2,1.43-2,1.22,0,1.5,1.53,1.46,2.8-.09,2.45,0,3.88-.15,6.7,0,.78,0,1.91.06,2.69,0,1.68.32,3.42-.17,5a5.93,5.93,0,0,1-1.16,1.94,6.93,6.93,0,0,0-.69,1.09c-.62,1.06-.76,2.09-.89,4.61s-.15,14.33-.15,14.33c2.91,4.82,8.37,13.67,12.83,16.77,8,5.59-3.87,9.88-7.74,13.74-.68-2.43-1.74-4.58-4.82-9.37-2.93-4.55-5.34-8.34-8.72-13.54-2.05-3.14-2.29-3-2.23-7.48a84,84,0,0,1,.71-9.15c.73-6,1-5.68,1.23-9.73a34.57,34.57,0,0,0-.82-3.84,23.2,23.2,0,0,1-.32-3.26c-.12-2.84-1.61-5.44-2-8.25C368.62,174.32,368.6,173.38,369.29,173.16Z" style="fill:#ffa8a7"></path><path d="M379.55,182.73l.79,1.39c-1,0-1.75.66-2.69,1s-2.76,1.34-3.09,2.7a2.82,2.82,0,0,1,.08-1.65c.1-.19.31-.53.25-.76s-.24-.24-.4-.34a2.33,2.33,0,0,1-.93-1.85,5.77,5.77,0,0,1,.4-2.14,5.85,5.85,0,0,0,.37,1.93c.18.51.49,1.42,1.14,1.48a1.08,1.08,0,0,0,.93-.41,2.68,2.68,0,0,0,.2-1.29l0-1a3.81,3.81,0,0,0,.7,1.41c.38.41,1.73.87,1.53-.17a2.37,2.37,0,0,0-.27-.61,4.66,4.66,0,0,1-.72-1.61,2,2,0,0,1,.23-1c.14-.28.43-.47.56-.73a2.31,2.31,0,0,0-.08,1.66,6.85,6.85,0,0,0,.71,1.53Z" style="fill:#f28f8f"></path><path d="M380.22,178.46a1,1,0,0,0-1.26.47.65.65,0,0,1,.71-.08c.24.12.34.42.47.64a4.61,4.61,0,0,0,1.4,1.64,8.4,8.4,0,0,1,1.09.79,2.84,2.84,0,0,1,.73,1.05,2.75,2.75,0,0,0-.08-.48,2.54,2.54,0,0,0-.15-.49,3.31,3.31,0,0,0-.54-.88,16.83,16.83,0,0,1-1.57-1.59C380.78,179.14,380.63,178.65,380.22,178.46Z" style="fill:#f28f8f"></path><g id="freepik--chest--inject-3"><path d="M411.69,198.44c.06-.66,3.67-.72,4.14-.69a7.57,7.57,0,0,1,4.25,1.61,13.54,13.54,0,0,1,4.53,8.13,33.44,33.44,0,0,1,0,9c-.21,2.26-.46,4.52-.46,6.8a28.61,28.61,0,0,0,.89,6.38c.08.36.14.8-.14,1.05a1,1,0,0,1-.94.07,7.46,7.46,0,0,1-3.22-1.94,9.3,9.3,0,0,0,1.71,4.73c.4.56.9,1.25.6,1.87-.78,1.63-4-.07-5-.62a8.71,8.71,0,0,1-3.78-4.58,18.57,18.57,0,0,1-.75-8.06,51.61,51.61,0,0,0,.38-8.14c-.26-3.22-1.38-6.27-2-9.42A20.41,20.41,0,0,1,411.69,198.44Z" style="fill:#263238"></path><path d="M411.69,198.44c-1-2.39-9.2-7-15.18-4.48s-9.24,8.56-6.4,14.56L409,224.17c.7-4.84,5.54-5.17,7.39-11.39S416.88,201.49,411.69,198.44Z" style="fill:#37474f"></path><path d="M392.83,201.13c-.86.83-2.84,4.29-3.08,11.39-.27,7.91,1.44,9.21,3.45,10.19a10.79,10.79,0,0,0,5.21.66l-.1,3.59s-6.95,5.39-1.79,6.67a11.55,11.55,0,0,0,8.31-1.52,12.63,12.63,0,0,0,3.9-4.06l.61-9s1.19,1.46,3.7-.26c2.07-1.42,3-4.12,1.74-5.78a3.41,3.41,0,0,0-5.45.4s-1.47.38-2.36-2c-.6-1.6-1.05-3.6-.78-8.5C399.12,204.72,393.07,202.67,392.83,201.13Z" style="fill:#ffa8a7"></path><path d="M412.19,217.64a1.2,1.2,0,1,1-2.4-.13,1.2,1.2,0,0,1,2.4.13Z" style="fill:#455a64"></path><path d="M414.35,211.33a1.56,1.56,0,0,0-1.63,1.47,1.49,1.49,0,0,0,.24.91.33.33,0,0,0,.47.1.32.32,0,0,0,.11-.47.9.9,0,0,1-.13-.51.85.85,0,0,1,.9-.8.86.86,0,0,1,.81.9.82.82,0,0,1-.13.4,2.58,2.58,0,0,1,.29.72,1.55,1.55,0,0,0-.93-2.72Z" style="fill:#455a64"></path><path d="M400.21,216.6l-4.14.94a2.08,2.08,0,0,0,2.49,1.67A2.23,2.23,0,0,0,400.21,216.6Z" style="fill:#9e6767"></path><path d="M397.63,219.2a2,2,0,0,1,2.17-1.73l.39.09a2.19,2.19,0,0,1-1.63,1.65A2.08,2.08,0,0,1,397.63,219.2Z" style="fill:#f28f8f"></path><path d="M391.88,207.86l2-1.16a1.12,1.12,0,0,0-1.56-.46A1.24,1.24,0,0,0,391.88,207.86Z" style="fill:#263238"></path><path d="M400.53,207.46l2.05,1.11a1.11,1.11,0,0,0-.43-1.56A1.23,1.23,0,0,0,400.53,207.46Z" style="fill:#263238"></path><polygon points="396.97 208.89 396.55 215.24 393.11 214.56 396.97 208.89" style="fill:#f28f8f"></polygon><path d="M398.41,223.37c2.44,0,7.86-1.75,8.86-3.61a5.09,5.09,0,0,1-2.2,3.08,26.54,26.54,0,0,1-6.7,2Z" style="fill:#f28f8f"></path><path d="M401.67,210.14a1.08,1.08,0,0,1-1,1.1,1,1,0,0,1-1.09-1,1.08,1.08,0,0,1,1-1.1A1,1,0,0,1,401.67,210.14Z" style="fill:#263238"></path><path d="M393.9,209.63a1.07,1.07,0,0,1-1,1.11,1,1,0,0,1-1.09-1,1.07,1.07,0,0,1,1-1.1A1,1,0,0,1,393.9,209.63Z" style="fill:#263238"></path><path d="M398.31,227s-2.18,1.69,0,2.75,8.22.23,10.4-1.66c0,0,5.48.95,6.67,1.26,1.55.4,2.33,6,1.36,11.62-.6,3.5-1.56,11.92-2.39,15.47-.52,2.2.3,3.76-1.53,4.57-8.89,3.75-20.29,4.22-29.52-.18-1.05-.63-1-1.41-.65-2.73s.29-6.92.32-8.65a7.67,7.67,0,0,1-2.8-5.71c0-3.82,1.94-6.38,5.67-10.42a46.71,46.71,0,0,1,8.56-6.71Z" style="fill:#263238"></path><path d="M414.11,229c6.65,0,7.79,4,12.19,11.73,4.28,7.54,10.78,18.6,10.84,21.85s-9,21.74-11.94,25.52-5.9,8.79-9.81,9.38c-1.7.25-3.94-.7-5.34-1.59a2.74,2.74,0,0,1-1.35-1.59,2.26,2.26,0,0,1,.8-2,15.1,15.1,0,0,1,1.86-1.3,6.69,6.69,0,0,0,2.42-2.85c.54-1.51-1.15-.76-2-.65a5.76,5.76,0,0,1-2.14-.24c-.5-.13-1.11-.35-1.2-.86a1,1,0,0,1,.4-.87,2.93,2.93,0,0,1,.91-.43,12.63,12.63,0,0,0,4.13-2.38c.86-.74,3.14-1.43,4.15-1.94.74-.38,2.19-.58,2.62-1.38s5.13-16.46,5.13-16.46l-11.11-17.3C411.62,240.19,411.55,233.41,414.11,229Z" style="fill:#ffa8a7"></path><path d="M406.8,248.72a8,8,0,0,1-7.95,3.6,8.47,8.47,0,0,1-6.81-5.07s-.27,5.91,6.69,6.48S406.8,248.72,406.8,248.72Z" style="opacity:0.2"></path></g></g></g></g><g id="freepik--character-1--inject-3"><g id="freepik--character--inject-3"><path d="M85.39,311.3a47.81,47.81,0,0,1,2.73-7.12s23.4,3.78,29.46,4.16c1.85,10.07,2.46,12.85,4,18.83a279.51,279.51,0,0,1,5.12,31.13c.27,2.63-2.16,9-3.23,11.44C117.26,383.89,107,406.47,107,406.47a12.23,12.23,0,0,0-1,6.1,32.34,32.34,0,0,0,2.27,9.09,25.14,25.14,0,0,0,1.33,3c1.17,2.89-.66,3.31-3.49,1.92-3-1.48-4.78-4.78-5.51-7.15-1.09-3.53-3.24-9.11-3.06-10.87l0,0,.06-.19h0l.59-3.48s2.59-10.71,4.4-23.08c1.51-10.31,1.88-13.13,7.23-20.86L97.41,331.43C93.45,323.59,85.39,311.3,85.39,311.3Z" style="fill:#ffa8a7"></path><path d="M93.52,411a3.7,3.7,0,0,0-.75,2c.4,2.59,3.11,4.5,4.15,6.16s2,5.23,2.69,7.36a9.33,9.33,0,0,0,6.35,5.92,5.4,5.4,0,0,0,4.84-1.21S94.29,410.24,93.52,411Z" style="fill:#37474f"></path><path d="M95.68,406.8c-.91,1.28-3,3.22-2.17,5.53.73,2,2.68,4,4,5.61a10.07,10.07,0,0,1,1.34,2.9c.47,1.2,1.16,4,1.73,5.18a10.71,10.71,0,0,0,1.82,2.52,9.8,9.8,0,0,0,2.66,2.09c1.58.79,4.16,1.37,5.77.62a3.21,3.21,0,0,0,1.42-4.82c-.39-.62-.77-1.24-1.2-1.83a17.79,17.79,0,0,1-1.75-3.68c-.33-.81-1.41-4.16-1.62-4.92-.42-1.58-1-3.85-.77-4.87a5.78,5.78,0,0,0,.3-1.57,1,1,0,0,0-.58-.74,5.09,5.09,0,0,0-2.52-.32c-.75,0-1.48.19-2.23.23a3.44,3.44,0,0,1-3.21-1.83,3.55,3.55,0,0,1-.51-2.06l.23-.72C97.64,403.5,96.7,405.37,95.68,406.8Z" style="fill:#455a64"></path><path d="M104.82,350.71s11.41-.78,20.87-7.61c0,0-6.41-30.32-8.26-35.76L91.72,318.77Z" style="fill:#455a64"></path><path d="M106.25,345.73l2.89-16.79a14.51,14.51,0,0,0,7.54-8.94,16,16,0,0,1-8.47,6.17l-4.27,22.39.88,2.15s1.21-.08,3.17-.43Z" style="fill:#37474f"></path><path d="M72.32,323.85a5,5,0,0,0-2.17-2.29,5.59,5.59,0,0,0-5.75,1.52c-1.84,2-2.33,4.95-3.51,6.51s-4.24,3.61-6,5a10.47,10.47,0,0,0-3.44,8.2,4.47,4.47,0,0,0,2.49,4Z" style="fill:#37474f"></path><path d="M71.59,323c-1.39-.73-4-.43-5.84,1.17-1.63,1.39-2.8,3.9-3.87,5.68a10.31,10.31,0,0,1-2.25,2.27c-1,.86-3.37,2.49-4.25,3.43a10.38,10.38,0,0,0-1.72,2.58,9.54,9.54,0,0,0-1,3.23c-.2,1.75.17,4.38,1.43,5.61a3.21,3.21,0,0,0,5-.34c.45-.58.89-1.16,1.29-1.77a19.34,19.34,0,0,1,2.73-3.14,22.15,22.15,0,0,1,4.36-3.07c.18-.09.35-.2.52-.27,1.92-.83,3.87-1.5,4.16-2.16s1-6.56,2.54-7.77c.41-.31.23-.89-.11-1.43S73,323.68,71.59,323Z" style="fill:#455a64"></path><path d="M88,303.76c-3.06,8-4.11,12.58-4.34,22.23-.15,6.33.18,21.27.45,28.55s.1,12.68,2.77,15.09,8.61,1.95,10.94-2.73,4.21-10.36,6-19.13a67.9,67.9,0,0,0,1.63-14.38l1.88-23.81Z" style="fill:#ffa8a7"></path><path d="M90.74,371c-3.19.12-5.22-1.07-9.62-8.69s-13.44-27.63-13.44-27.63-1.21-3.81,1.51-6.33c3-2.83,4.89-1.16,4.89-1.16s2.37,3.26,5,6.44c2.46,2.94,5.63,5.82,7.76,8.57C88.38,344.16,90.74,371,90.74,371Z" style="fill:#ffa8a7"></path><path d="M83.72,338.64s.22,17.95.78,24.31a62.69,62.69,0,0,1-2.29-13.35,104.27,104.27,0,0,1-.4-13Z" style="fill:#f28f8f"></path><path d="M88,303.76a46.68,46.68,0,0,0-4.44,15.08c-.81,8.1,0,28.22,0,28.22s1.86,3.12,9.3,4.2,10.65-.43,10.65-.43l4.71-24.66s9.7-5,10.38-15Z" style="fill:#455a64"></path><path d="M96.66,315.89l-.82,0a12.82,12.82,0,0,1-4.22,9A6.86,6.86,0,0,1,87,326.66c.24-7,.86-13.69,1.91-17.52l-.79-.22c-2.27,8.32-2.78,31.47-1.1,40.71.28.13.59.26.92.39-.89-4.49-1.24-13.67-1-22.53a7.64,7.64,0,0,0,5.19-2A13.66,13.66,0,0,0,96.66,315.89Z" style="fill:#37474f"></path><g id="freepik--top--inject-3"><g id="freepik--chest--inject-3"><path d="M139.62,227.18a9.89,9.89,0,0,0-1.06-4.59,11.46,11.46,0,0,0-2.32-2.55,3.68,3.68,0,0,0-1.74-1,8.93,8.93,0,0,1-1.47-.12c-.59-.21-1-.83-1.66-.8a1.13,1.13,0,0,0-.94.87,3.33,3.33,0,0,0,0,1.37c.26,1.9.52,3.79.77,5.69.09.64.39,3.6-1,2.54a3.22,3.22,0,0,1-.65-.82,5.82,5.82,0,0,0-1.68-1.94,1.12,1.12,0,0,0-1.26-.08,1.15,1.15,0,0,0-.1,1.33c.3.72.7,1.37.92,2.08a21.81,21.81,0,0,0,1,2.51c.54,1.2,1.69,2.32,2.07,3.58,1,3.15-3,19.63-3,19.63-3.06,4.2-8.81,12-13.17,14.48-7.84,4.51,2.79,9.41,6,13.28.82-2.19,2-4.09,5.19-8.26,3.06-4,5.58-7.26,9.11-11.78,2.14-2.73,2.21-3.42,2.64-6.71.51-3.82,1.1-14.93,1.35-18.43.17-2.25.7-3.93.87-6.17A32.4,32.4,0,0,0,139.62,227.18Z" style="fill:#ffbda7"></path><path d="M118.28,292.08c-.12,1.28.32,10.32.32,10.32,0,3,1.13,6.52,1.78,13.65-17.95,8.69-37.36-.23-37.36-.23,2.55-11.17,6.76-13.67,6.67-16.06l-2-15.34s5.57-4.45,5.06-13.9l7.67-.8,7.32.21,5.2.37a33.11,33.11,0,0,1,6.56,8.53C122.2,283.91,122.19,288,118.28,292.08Z" style="fill:#00C3FF"></path><path d="M112.56,290.3a7.84,7.84,0,0,1-7.56,3.93,8.27,8.27,0,0,1-6.91-4.59s0,5.78,6.87,6S112.56,290.3,112.56,290.3Z" style="opacity:0.2"></path><path d="M98.85,265c-.94-1.17-2.52-2.07-4.75-4.72-3.11-3.68-4.87-12.83.25-17.2,3.47-4.58,11.75-6,16.37-3.79s6.47,8.06,6.47,8.06Z" style="fill:#f0997a"></path><path d="M93.46,254a2.07,2.07,0,0,1,3.34,0c.29.41.47.88.76,1.29a1.58,1.58,0,0,0,1.21.78,1.38,1.38,0,0,0,1-.5,3.4,3.4,0,0,0,.52-1,9.3,9.3,0,0,0,.46-4.12,2.25,2.25,0,0,0,1.51.62,1.8,1.8,0,0,0,1.44-.7,3.75,3.75,0,0,0,.41-2.08,6.9,6.9,0,0,1,.47-2.78,4.13,4.13,0,0,1,1.76-1.24,7.71,7.71,0,0,1,3.52-1.17c.7,0,1.41-.07,2.11,0a5.94,5.94,0,0,1,2.11.24c1.73.88,4.15,2.77,3.78,11.59-.3,6.9-2.81,10.07-4,10.68s-2.63.74-4.93.5v3.93a5.34,5.34,0,0,1,1.43,6.12,23.31,23.31,0,0,1-6.42-1.85c-4.55-2.25-5-4.32-5-4.32l-.13-10.46a2.6,2.6,0,0,1-3.93.31C92.89,258.33,92.08,255.6,93.46,254Z" style="fill:#ffbda7"></path><path d="M120.32,244.45a5.4,5.4,0,0,0,.46-1l-2.93-.65a7.23,7.23,0,0,0,2.4-3.29,1.22,1.22,0,0,0-.1-1.31,1.34,1.34,0,0,0-1-.21,24.66,24.66,0,0,1-7.27-.61,23.67,23.67,0,0,0-3.31-.76,20.16,20.16,0,0,0-3.56,0c-.64.05-1.28.12-1.92.22-2.84.43-6.35,1.37-7.94,4-.52.86-1.23,2.71-.31,3.44,1.57,1.23,4.22,1.83,6.15,2.18.94.18,1.92.07,2.86.24s1.54.91,2.42,1.24a2.48,2.48,0,0,0,2,0,1.54,1.54,0,0,0,.83-1.7,9.66,9.66,0,0,0,3.68,1.9,2.17,2.17,0,0,0,1.53-.19,1,1,0,0,0,.39-1.37,4.93,4.93,0,0,0,5.68-2.14Z" style="fill:#00C3FF"></path><path d="M108.08,253.51a1,1,0,0,1-.92,1.13,1,1,0,0,1-1.11-.88,1.06,1.06,0,0,1,.92-1.13A1,1,0,0,1,108.08,253.51Z" style="fill:#263238"></path><path d="M116.7,252l-1.81-1.63a1.17,1.17,0,0,1,1.69-.13A1.29,1.29,0,0,1,116.7,252Z" style="fill:#263238"></path><path d="M107.4,250.6l-2.11,1.2a1.16,1.16,0,0,1,.41-1.64A1.27,1.27,0,0,1,107.4,250.6Z" style="fill:#263238"></path><path d="M107.42,259.91l4,.66a1.94,1.94,0,0,1-2.25,1.69A2.12,2.12,0,0,1,107.42,259.91Z" style="fill:#b16668"></path><path d="M109.15,262.26h.25a1.55,1.55,0,0,0-1.55-1.54,1.34,1.34,0,0,0-.35,0A2.12,2.12,0,0,0,109.15,262.26Z" style="fill:#f28f8f"></path><path d="M116.25,253a1.05,1.05,0,0,1-.92,1.13,1,1,0,0,1-1.11-.88,1,1,0,0,1,.91-1.13A1,1,0,0,1,116.25,253Z" style="fill:#263238"></path><polygon points="111.02 252.03 111.09 258.36 114.61 257.48 111.02 252.03" style="fill:#f0997a"></polygon><path d="M108.91,266.13c-2.43-.36-7.58-1.66-8.47-3.56a5.73,5.73,0,0,0,2,2.73c1.55,1.17,6.49,2.22,6.49,2.22Z" style="fill:#f0997a"></path><path d="M92.77,270.52C90,267.12,81,256.22,79.9,253.9a71.33,71.33,0,0,1-2.09-10.37,64.07,64.07,0,0,1-.09-11.24c.24-2,1.6-3,2.82-4.33a11.58,11.58,0,0,0,1.77-3.07,8.76,8.76,0,0,1,.87-1.59,1,1,0,0,0,.26-.93.89.89,0,0,0-1-.46,2.85,2.85,0,0,0-1.68.92c-.45.47-.82,1-1.27,1.49a1.3,1.3,0,0,1-.6.41c-1.41.32.12-2.22.28-2.57.81-1.79,1.41-3.71,2.11-5.54a3.17,3.17,0,0,0,.27-1.16,1,1,0,0,0-.59-1c-.54-.19-1.08.24-1.65.32a6.39,6.39,0,0,1-1.49-.22,4.56,4.56,0,0,0-2.12.5,10.71,10.71,0,0,0-2.63,1.4,7.62,7.62,0,0,0-2.37,3.81,23.85,23.85,0,0,0-.91,5c-1.3,15.37-1.78,21.49-1.17,27.09.19,1.82.44,4.76,1.4,6.32,1.48,2.42,4.3,6.67,7.65,11.66,1.5,2.24,4.82,6.68,7.61,10.79,1.58,2.32,3.2,6,3.82,6.2C91.21,286.88,96.12,276.84,92.77,270.52Z" style="fill:#ffbda7"></path></g></g></g></g><g id="freepik--character-2--inject-3"><g id="freepik--character--inject-3"><g id="freepik--character--inject-3"><polygon points="359.32 286.25 359.82 297.52 370.19 297.46 370.04 284.98 359.32 286.25" style="fill:#f28f8f"></polygon><path d="M347.25,264a4.73,4.73,0,0,1,.11-1.59,4.86,4.86,0,0,1,2.56-3.15,5.13,5.13,0,0,1,4.15-.14,4.67,4.67,0,0,1,3-5,6.34,6.34,0,0,1,4.75.44,3.71,3.71,0,0,1,2,1.83,5.41,5.41,0,0,1,5.3-2.14,5.29,5.29,0,0,1,4.13,3.9c1.59-.26,3.78.54,4.4,2.1.7,1.76-.39,3.84-.12,5.67.17,1.18.63,2.31.79,3.51a27,27,0,0,1,.17,4C378.41,279,365,281.86,365,285.67L358.41,277c0-.35-.94-1.27-1.15-1.57-.39-.57-.73-1.18-1.09-1.78a11,11,0,0,0-4.67-4,9,9,0,0,1-3.33-2.95A5.93,5.93,0,0,1,347.25,264Z" style="fill:#263238"></path><path d="M352.32,273.53s-2.47,3.17-2.19,3.54a5.7,5.7,0,0,0,1.71.81Z" style="fill:#b16668"></path><path d="M359.88,263.46c-2.29,1-6.24,2.79-7.66,10.55-1.44,8,.28,10.85,1.37,12,.73.75,4.72,1.22,6.83.72,2.65-.63,8.45-3,11.32-7,3.38-4.7,4.37-11.15.92-13.89A14,14,0,0,0,359.88,263.46Z" style="fill:#f28f8f"></path><path d="M353.79,286.12a11.93,11.93,0,0,0,5.56.73v-1.44a14.55,14.55,0,0,1-2.68.69A9.48,9.48,0,0,1,353.79,286.12Z" style="fill:#b16668"></path><path d="M358.91,263.17a8.88,8.88,0,0,0-2.66,1.3,3.43,3.43,0,0,0-1,1.1,2.56,2.56,0,0,0-.26,1.28,3.49,3.49,0,0,0,1.93,2.9,3.28,3.28,0,0,0-.71,2.76,6.67,6.67,0,0,0,1.88,2.95.36.36,0,0,0,.17.13.46.46,0,0,0,.37-.08c1.45-.83,2.39-2.35,4.33-1.62,2.55,1,2.26,4.07.12,5.89a3.67,3.67,0,0,1-2.54,1.09,4.2,4.2,0,0,1-1.43-.21,5.8,5.8,0,0,0,3.19,5.5,14.78,14.78,0,0,0,7.74.51c1.46-1.61,3.87-3.64,5.86-5.47,6.57-6,7.42-15.19-1.6-18.6l-.94-.32a20.06,20.06,0,0,0-9-.68,20.67,20.67,0,0,0-4.38,1.17C359.63,262.92,359.27,263,358.91,263.17Z" style="fill:#263238"></path><path d="M357.8,278.28a1.84,1.84,0,0,1-1.05-2.45,2,2,0,0,1,2.57-1Z" style="fill:#263238"></path><path d="M320.22,446.9c-.44-.08-.5,1.2-.39,1.77s1.76,2.55,4.92,3.47,7.67.72,9.59.8,5.13,1.27,7,1.7,5.37.09,6.58-.85a1.88,1.88,0,0,0,.6-1.49c.07-1.23,0-1.49-.17-1.49Z" style="fill:#37474f"></path><path d="M348.22,447.11q.06.38.09.75a12,12,0,0,1-.09,3.79,3.57,3.57,0,0,1-2.47,1.47,12.38,12.38,0,0,1-6.48-.49,19.32,19.32,0,0,0-4.88-.92,49.42,49.42,0,0,1-6.67-.32,16.38,16.38,0,0,1-4.79-1.43,6.07,6.07,0,0,1-2.73-2.84,4.35,4.35,0,0,1,2.89-4.07,10.38,10.38,0,0,1,5.05-.56c1.86.18,3.24.55,4.9.58a8.23,8.23,0,0,0,3.35-.46,3.18,3.18,0,0,0,1.17-1.34c.32-.54.46-1,1-1,0,0,7.8.55,8.59.69s.77,3.23.82,3.83,0,1,.1,1.44S348.18,446.8,348.22,447.11Z" style="fill:#455a64"></path><path d="M331.63,442.63a1.38,1.38,0,0,0-.39-.18c-.75-.18-1.39.49-1.76,1a4.67,4.67,0,0,0-.5,1.06,2.47,2.47,0,0,0-.16,1.42c0,.12.11.27.24.25s.15-.15.18-.26a5.31,5.31,0,0,1,.74-1.87,2.16,2.16,0,0,1,.53-.67,2.25,2.25,0,0,1,.79-.39c.12,0,.63,0,.53-.2a.27.27,0,0,0-.1-.11Z" style="fill:#fafafa"></path><path d="M333.82,442.83a1.53,1.53,0,0,0-1,.18,1.89,1.89,0,0,0-.68.92,3,3,0,0,0-.29,2.45c.12.24.33.14.43-.06a3,3,0,0,0,.16-.75A6.92,6.92,0,0,1,333,444a2.32,2.32,0,0,1,.37-.57,1.07,1.07,0,0,1,.36-.27.86.86,0,0,1,.21-.07h.21c0-.1-.1-.17-.21-.2Z" style="fill:#fafafa"></path><path d="M336.07,442.42a1.45,1.45,0,0,0-.68.36,1.88,1.88,0,0,0-.36.63,6.62,6.62,0,0,0-.44,1.58,1.88,1.88,0,0,0,.18,1.12c.07.14.21.28.36.23s.17-.3.19-.43.05-.53.08-.78a4.5,4.5,0,0,1,1.14-2.56s.07-.08.06-.12-.11-.09-.19-.08A2.15,2.15,0,0,0,336.07,442.42Z" style="fill:#fafafa"></path><path d="M329.29,442.63c-.77-.08-2.48.8-3.47,3a12.79,12.79,0,0,0-.81,5.14,7.71,7.71,0,0,1-4.09-2.33,4.41,4.41,0,0,1-1-1.4,4.52,4.52,0,0,1,1.11-3.43c1.24-1.19,3-1.89,5.77-1.8,3.07.11,3.27.92,3.27.92Z" style="fill:#00C3FF"></path><path d="M347.83,435.84s-.45,3.88-.86,5.67c-.23,1-1.35,2.52-4.6,2.28-2.28-.17-3.45-1.51-3.69-2.65a61.55,61.55,0,0,1,.2-7.13Z" style="fill:#f28f8f"></path><path d="M393.81,431.07l-4-11.42-10.71,2.28s7.71,12.33,8.49,13.45C388.84,437.22,393.81,431.07,393.81,431.07Z" style="fill:#f28f8f"></path><path d="M398.23,434.41a5.57,5.57,0,0,1-.07,1.35c-.21,1.56-.41,3.11-.62,4.67a11.27,11.27,0,0,1-.36,1.82,11.68,11.68,0,0,0-.21,2.22c-.06.77-.12,1.55-.17,2.32a4.2,4.2,0,0,0-.05,1c.06.32-5.25,2.91-7.39,3.9l-.39.16a3.36,3.36,0,0,1-3.34-1,5.48,5.48,0,0,1,1.74-6s.26,0,.32-2c.07-1.41.13-2.84.07-4.24a8.87,8.87,0,0,0-.55-2.6,6.14,6.14,0,0,1-.75-2.42,3.45,3.45,0,0,1,.9-1.61,5,5,0,0,1,1.33-1.26,9.22,9.22,0,0,1,3.74-1.55,1.52,1.52,0,0,1,.82,0c.41.14.63.55.89.89a9.67,9.67,0,0,0,2.24,1.81,4,4,0,0,1,1.79,2.16A1.7,1.7,0,0,1,398.23,434.41Z" style="fill:#455a64"></path><path d="M387.37,444.85a6.6,6.6,0,0,0-.72.9h0a6.92,6.92,0,0,0-1,5.15c-3.62-.52-4.47-2.61-4.47-2.61a3.36,3.36,0,0,1,2.06-2.94A4.78,4.78,0,0,1,384,445l0,0A5.48,5.48,0,0,1,387.37,444.85Z" style="fill:#00C3FF"></path><path d="M399.21,435c.94.41.55,2.95-.19,5.37s-1.11,3.26-.91,5.32.32,3-.58,3.68-7.89,3.43-7.89,3.43a23.93,23.93,0,0,0,1.94-7.59c.42-4.51.89-7.41,3.17-9.35A4.2,4.2,0,0,1,399.21,435Z" style="fill:#00C3FF"></path><path d="M399.21,435c.94.41.55,2.95-.19,5.37s-1.11,3.26-.91,5.32.32,3-.58,3.68-7.89,3.43-7.89,3.43a23.93,23.93,0,0,0,1.94-7.59c.42-4.51.89-7.41,3.17-9.35A4.2,4.2,0,0,1,399.21,435Z" style="opacity:0.4"></path><path d="M381.16,448.28a12.92,12.92,0,0,0,5.57,2.72c3,.51,3.24-.62,3.76-4.11s.89-8.32,2.43-10.37,4-2.87,4.91-2.61c.2-.08,1.1.64,1.38,1.07a5.32,5.32,0,0,0-4.08,1.33c-2,1.71-2.55,5.5-2.83,8.95s-.64,7.46-3.51,7.73a10.6,10.6,0,0,1-7.63-2.7A1.38,1.38,0,0,1,381.16,448.28Z" style="fill:#37474f"></path><path d="M387.65,443.57a1,1,0,0,0-.45.62,2,2,0,0,0,.93,1.87c.38.23.71.17.13-.59A3.77,3.77,0,0,1,387.65,443.57Z" style="fill:#fafafa"></path><path d="M387.73,441.13a.81.81,0,0,0-.29.51,3.07,3.07,0,0,0,1.15,2c.65.33.33-.41,0-.76A12.87,12.87,0,0,1,387.73,441.13Z" style="fill:#fafafa"></path><path d="M387.71,438.44a.58.58,0,0,0-.34.41c0,.28,1.28,1.36,1.72,1.35s.54-.14,0-.52S387.71,438.44,387.71,438.44Z" style="fill:#fafafa"></path><path d="M382.8,428.21s-19.35-32.4-19.86-34.82-3.14-27.45-3.14-27.45l-6.23,28.91a51.64,51.64,0,0,1,.95,8.75,91.57,91.57,0,0,1-2.11,14.08c-2.14,10.07-4.5,19.49-4.5,19.49a8.6,8.6,0,0,1-4.55.71,12.34,12.34,0,0,1-4.87-1.67s-.14-27.31-.13-33.56-.38-10-.35-14.16c.05-6.56.25-10.33,1.52-22.3,1.13-10.62,5.13-33.59,5.13-33.59h32.45s2.85,4.71,2.45,18.3c-.31,10.61-2.18,40.37-2.18,40.37,4.85,3.32,6.21,6.56,8.28,12.66,1.3,3.84,4.56,15.73,5.52,19.24C386.89,424.06,382.8,428.21,382.8,428.21Z" style="fill:#37474f"></path><path d="M359.76,366l3.5-11.72s4.85.6,11.08-3.71c0,0-.91,4.11-9.46,5.58l-3.43,11.48.1,14.46Z" style="fill:#263238"></path><path d="M399.2,252.84a9.66,9.66,0,0,0-.8-4.59,11.21,11.21,0,0,0-2.16-2.65,3.72,3.72,0,0,0-1.66-1.12,7.68,7.68,0,0,1-1.45-.2c-.57-.23-1-.88-1.59-.88a1.14,1.14,0,0,0-1,.82,3.22,3.22,0,0,0-.07,1.35l.45,5.66c.05.63.19,3.58-1.1,2.46a3,3,0,0,1-.6-.85,5.57,5.57,0,0,0-1.56-2,1.1,1.1,0,0,0-1.24-.15,1.13,1.13,0,0,0-.17,1.31c.26.73.61,1.39.8,2.11a22.05,22.05,0,0,0,.84,2.53c.48,1.21,1.55,2.39,1.86,3.65.82,3.17-4,19.23-4,19.23-3.26,4-9.36,11.37-13.8,13.61-8,4,2.25,9.45,5.26,13.44.93-2.12,2.13-2.94,5.54-6.89,3.23-3.75,6-7.43,9.66-12.14,2.11-2.71,2.37-3.26,3-6.49.7-3.75,1.87-14.7,2.31-18.14.29-2.22.9-3.85,1.2-6.05A33.51,33.51,0,0,0,399.2,252.84Z" style="fill:#f28f8f"></path><path d="M379.32,297.19c-.89-3.08-1.6-5.21-7.67-5.27l-.85,0c-2.17.18-5.2.19-10.76.3-.7.09-4.81.57-5.91.65h0c-3.73,1-5.1,4.08-10.56,14.65-1.36,2.63.05,7.82,2.48,9.67-.88,10.36-3,23.6-3,23.6s7.66,4.53,20.2,3.62c11.22-.82,16.51-6.91,16.08-6.12a104.14,104.14,0,0,0-5.51-16.06C380.43,308.55,380.64,301.77,379.32,297.19Z" style="fill:#00C3FF"></path><g id="freepik--top--inject-3"><path d="M353.89,292.41c-2.56-3.5-10.86-14.76-11.82-17.11a68.63,68.63,0,0,1-1.51-10.36,61.29,61.29,0,0,1,.51-11.12c.33-1.92,1.74-2.84,3-4.12a11.74,11.74,0,0,0,1.92-2.94,8.61,8.61,0,0,1,.94-1.53,1,1,0,0,0,.31-.9.87.87,0,0,0-.91-.5,2.71,2.71,0,0,0-1.71.82c-.48.43-.87.95-1.34,1.4a1.22,1.22,0,0,1-.61.37c-1.42.24.23-2.18.41-2.53.89-1.72,1.59-3.58,2.38-5.36a3,3,0,0,0,.33-1.12,1,1,0,0,0-.54-1c-.51-.22-1.08.18-1.64.23a6.74,6.74,0,0,1-1.46-.29,4.34,4.34,0,0,0-2.12.37,10.89,10.89,0,0,0-2.68,1.24,7.56,7.56,0,0,0-2.54,3.65,23.73,23.73,0,0,0-1.17,4.84c-2.1,15.12-2.9,21.14-2.61,26.71.1,1.8.19,4.73,1,6.31,1.34,2.48,3.9,6.83,6.94,11.94,1.36,2.3,4.39,7.42,6.61,11.81,1.46,2.88,2.19,5.07,2.8,5.29C350.5,308.2,356.86,298.84,353.89,292.41Z" style="fill:#f28f8f"></path></g><path d="M357.05,344.41a44.19,44.19,0,0,0,6.19,0c10.23-.75,15.63-5.87,16.07-6.17a97.84,97.84,0,0,0-5.5-16c3.35-6.9,5.05-12,5.75-16-.64,2.9-5.72,14-11.75,17.1a13.39,13.39,0,0,1,5.45,5C375.87,332.18,373.31,344.48,357.05,344.41Z" style="opacity:0.1"></path></g></g></g><g id="freepik--character-1--inject-3"><g id="freepik--character--inject-3"><g id="freepik--character--inject-3"><g id="freepik--bottom--inject-3"><path d="M187.68,431.2c.07-2.54.66-28.12.66-28.12l-11.89,9.62c2.47,14.53,3.38,18.42,3.54,20.85h0a2,2,0,0,0,0,.63c.14,2.89,3.48,4.3,6.11,6.11a46.91,46.91,0,0,0,7.1,4.18c1.89.85,5.65.76,6.06-.45-3.21-2.23-6.91-4.65-9.5-7.24C188.48,435.55,187.58,434.24,187.68,431.2Z" style="fill:#ffc4c3"></path><path d="M204.64,446.89a2.46,2.46,0,0,1-.35,2.51,10.62,10.62,0,0,1-7.7,2.13,13.59,13.59,0,0,1-7.64-2.64c-1.6-1.23-3.85-2.95-5.62-3.26a10.53,10.53,0,0,1-4-1.42c-.54-.47-.57-2.71-.57-2.71Z" style="fill:#263238"></path><path d="M179.93,432.85a.6.6,0,0,0-.56.54c-.09.63-.14,2.42-.35,3.44a18.24,18.24,0,0,0-.13,5.44c.27,1.13,3,1.8,4.67,2.37a21.44,21.44,0,0,1,5.64,3.21,16,16,0,0,0,8.29,2.66c3.84-.12,6.29-1.27,7-2.69.87-1.75.08-2.71-4.43-4.55-.85-.35-3.87-2-4.9-2.54-2.79-1.58-5.58-3.83-7-6.79a1.68,1.68,0,0,0-.68-.9,1.4,1.4,0,0,0-.86,0,7.18,7.18,0,0,0-2.1.73c-.58.31-1.4.68-1.36,1.44a2.53,2.53,0,0,0,.21.76c.06.16.11.36,0,.46s-.3,0-.42-.1a11.69,11.69,0,0,1-1.26-1.37,4.27,4.27,0,0,0-.73-.68,8.42,8.42,0,0,1-.78-.46C179.91,433.54,180,433.2,179.93,432.85Z" style="fill:#37474f"></path><path d="M200.78,443.57c-5.55.64-7.14,4.16-7.28,6.29a12.89,12.89,0,0,0,4,.65c3.84-.12,6.44-1.28,7.15-2.7C205.46,446.16,204.79,444.89,200.78,443.57Z" style="fill:#fafafa"></path><path d="M192.44,444a.32.32,0,0,1-.18-.06.27.27,0,0,1,0-.38,6.55,6.55,0,0,1,4.94-2.21.27.27,0,0,1,.25.29.26.26,0,0,1-.28.25,6.08,6.08,0,0,0-4.47,2A.29.29,0,0,1,192.44,444Z" style="fill:#f0f0f0"></path><path d="M190,442.72a.31.31,0,0,1-.18-.05.27.27,0,0,1-.05-.38,6.52,6.52,0,0,1,4.94-2.22.27.27,0,0,1,.25.29.28.28,0,0,1-.28.26,6.06,6.06,0,0,0-4.48,2A.24.24,0,0,1,190,442.72Z" style="fill:#f0f0f0"></path><path d="M187.69,441.23a.28.28,0,0,1-.18-.06.27.27,0,0,1-.06-.38,6.59,6.59,0,0,1,5-2.21.27.27,0,0,1,.25.29.26.26,0,0,1-.29.25,6.1,6.1,0,0,0-4.47,2A.29.29,0,0,1,187.69,441.23Z" style="fill:#f0f0f0"></path><path d="M185.44,439.73a.25.25,0,0,1-.18-.05.28.28,0,0,1-.06-.38,6.71,6.71,0,0,1,5.41-2.26.27.27,0,0,1,.25.29.26.26,0,0,1-.29.25,6.21,6.21,0,0,0-4.93,2A.24.24,0,0,1,185.44,439.73Z" style="fill:#f0f0f0"></path><path d="M162.63,413l-12.23-1c-.36,8.19.35,17.35.06,25-.05,1.45-.77,11.22-.42,14.23.53,4.52,5.87,4.26,6.33,1.61s.58-14.12.67-15.29c.27-4.93,3.12-13.08,4.91-21.84C162,415.29,162.55,413.41,162.63,413Z" style="fill:#ffc4c3"></path><path d="M158.24,454.84a12.29,12.29,0,0,1-1.28,6,3.87,3.87,0,0,1-4.42,1.72c-1.79-.38-4.12-1.51-4.71-3.76a14.39,14.39,0,0,1-.22-6.25Z" style="fill:#263238"></path><path d="M150.49,436.07c-.73.08-.82,3.62-1.12,7.16-.32,3.8-1.4,5.41-1.69,8.52-.34,3.56-.1,5.14,1.22,7.24s5.78,4.05,7.84.9c1.68-2.56,1.66-5.34,1.37-8.87a88.77,88.77,0,0,1-.47-9c.05-2.66.14-5.23-.51-5.51l-.1,1.27c0,.3-.06,1.74-.47,1.77a5.58,5.58,0,0,1,0-1,1.2,1.2,0,0,0-.23-.85,1.44,1.44,0,0,0-.83-.34c-.72-.11-1.46-.22-2.19-.26a10.09,10.09,0,0,0-1.1,0,2.93,2.93,0,0,0-.93.16.66.66,0,0,0-.38.37,1.12,1.12,0,0,0,0,.41,3.54,3.54,0,0,1-.07.73c0,.11-.09.24-.2.22s-.12-.13-.12-.21c0-.43,0-.75,0-1.24,0-.23,0-.55,0-.78S150.49,436.3,150.49,436.07Z" style="fill:#37474f"></path><path d="M147.55,453.81a8.68,8.68,0,0,0,1.16,5.36c1.31,2.1,6.14,4,8.2.89a10.06,10.06,0,0,0,1.33-5.23C156.86,452.51,149.52,451.73,147.55,453.81Z" style="fill:#fafafa"></path><path d="M156.22,451.05a.32.32,0,0,1-.09,0,10.75,10.75,0,0,0-6.35-.43.27.27,0,0,1-.33-.19.27.27,0,0,1,.19-.33,11.18,11.18,0,0,1,6.71.45.28.28,0,0,1,.14.36A.28.28,0,0,1,156.22,451.05Z" style="fill:#f0f0f0"></path><path d="M149.87,447.94a.27.27,0,0,1-.24-.17.27.27,0,0,1,.16-.35,9.31,9.31,0,0,1,6.7.4.26.26,0,0,1,.12.36.28.28,0,0,1-.36.13,8.88,8.88,0,0,0-6.27-.38A.2.2,0,0,1,149.87,447.94Z" style="fill:#f0f0f0"></path><path d="M150,445.45a.27.27,0,0,1-.23-.17.28.28,0,0,1,.15-.36,8.46,8.46,0,0,1,6.83.37.28.28,0,0,1-.27.48,8,8,0,0,0-6.36-.34Z" style="fill:#f0f0f0"></path><path d="M150.1,442.64a.29.29,0,0,1-.24-.17.26.26,0,0,1,.15-.35,8.84,8.84,0,0,1,6.88.44.28.28,0,0,1,.11.37.26.26,0,0,1-.36.11s-3.32-1.71-6.42-.42A.25.25,0,0,1,150.1,442.64Z" style="fill:#ebebeb"></path><path d="M155.49,330.8c-2.16,5.45-4.56,9.29-4.51,19.42.12,21.52.9,37,.9,37-.08,1.9-.95,4.71-1.89,14.52-.79,8.23-.11,20.82-.11,20.82s5.58,2.69,10.58.45c1.77-7.06,4.73-25.45,6.6-34.89,1.71-8.57,3.25-21.08,3.25-21.08L174.25,388s-.31,8.46.15,13.42c.53,5.77,3.79,21.88,3.79,21.88s5.7,2.27,9.95-1.12c0,0,1.13-29.16.93-36.12-.38-13.66-.69-42.45-3.56-56.66Z" style="fill:#37474f"></path><path d="M149.54,420.56c2.11,1.23,8.69,1.85,11.47.7l-.68,3.34s-1.24.94-5.13.86-5.45-1.64-5.45-1.64Z" style="fill:#455a64"></path><path d="M177.5,420.51c2.25.95,8.35.74,10.95-.76l-.24,3.39s-.86,1.3-4.74,1.51-5.33-.94-5.33-.94Z" style="fill:#455a64"></path><path d="M170.31,367.08l1.81-15.27s9-1.39,12.21-4.67c0,0-4,6-10.07,7.18L172.12,367l2.1,20.84Z" style="fill:#263238"></path></g><g id="freepik--top--inject-3"><path id="freepik--Hair--inject-3" d="M156,277.52a45.42,45.42,0,0,1-.81,9.79c-.65,2.91-3.35,9.64-4.53,15.48-1.09,5.41-5.78,20.18,5.86,25.53h23.64s1.08-33.17-2.36-42.22-2.75-10.67-2.75-10.67Z" style="fill:#263238"></path><path d="M202,246.46a9.91,9.91,0,0,0-1.37-4.51,11.53,11.53,0,0,0-2.49-2.39,3.69,3.69,0,0,0-1.81-.92,8,8,0,0,1-1.47,0c-.61-.16-1.09-.76-1.71-.68a1.13,1.13,0,0,0-.89.93,3.53,3.53,0,0,0,.09,1.37q.58,2.81,1.16,5.63c.13.62.63,3.55-.81,2.59a3.42,3.42,0,0,1-.7-.77,5.62,5.62,0,0,0-1.81-1.82,1.11,1.11,0,0,0-1.26,0,1.14,1.14,0,0,0,0,1.33c.35.7.79,1.32,1.06,2a21.79,21.79,0,0,0,1.16,2.44c.62,1.15,1.85,2.2,2.31,3.43,1.22,3.08-1.66,19.78-1.66,19.78-2.77,4.41-7.73,12.5-11.91,15.3-7.52,5,3.18,9.26,6.7,12.89.66-2.24,1.68-4.21,4.61-8.59,2.78-4.16,5.06-7.63,8.28-12.38,1.95-2.87,2-3.56,2.18-6.88.24-3.84.07-15,.08-18.47,0-2.26.43-4,.45-6.22A32.53,32.53,0,0,0,202,246.46Z" style="fill:#ffc4c3"></path><g id="freepik--chest--inject-3"><path d="M184.71,314.35c-.16,3.59.52,15.27.52,15.27-11,7.42-30,1.37-30,1.37,1-2.69,1.81-4.67,1.59-7.18l-2.34-14.41a29.83,29.83,0,0,0,3.3-17l8-1.21,7.71-.13,4.31.11c1.7,1.44,4.35,5.19,6.86,9.46C187.74,305.82,187.81,310.75,184.71,314.35Z" style="fill:#ffc4c3"></path><path d="M152.84,335c2.15-5.88,3.23-7.88,3.4-10.76S155,312.86,155,312.86a5.77,5.77,0,0,0,.56.17,11.47,11.47,0,0,0,3.14-4.39,58.57,58.57,0,0,1,2.85-5.17,73.2,73.2,0,0,0-2.07-11.35l2-.36s1.81,4.09,3.43,8.13c8.33,2.58,11.68,8.06,11.68,8.06a23.65,23.65,0,0,1,4.59-8.74,37.49,37.49,0,0,0-4.37-8.09l1.82-.08s5.26,6.77,6.56,9.09,4,8.94,1.23,13.42L188,342.31s-2,3.62-11.35,4.83-16.41-7.48-16.41-7.48-4.06,5.78-9.85,6.28A43.68,43.68,0,0,1,152.84,335Z" style="fill:#00C3FF"></path><path d="M152.84,335c2.15-5.88,3.23-7.88,3.4-10.76S155,312.86,155,312.86a5.77,5.77,0,0,0,.56.17,11.47,11.47,0,0,0,3.14-4.39,58.57,58.57,0,0,1,2.85-5.17,73.2,73.2,0,0,0-2.07-11.35l2-.36s1.81,4.09,3.43,8.13c8.33,2.58,11.68,8.06,11.68,8.06a23.65,23.65,0,0,1,4.59-8.74,37.49,37.49,0,0,0-4.37-8.09l1.82-.08s5.26,6.77,6.56,9.09,4,8.94,1.23,13.42L188,342.31s-2,3.62-11.35,4.83-16.41-7.48-16.41-7.48-4.06,5.78-9.85,6.28A43.68,43.68,0,0,1,152.84,335Z" style="fill:#fff;opacity:0.7000000000000001"></path></g><g id="freepik--Head--inject-3"><path d="M163.92,286.86c-1-1.18-2.75-2.05-5.23-4.73-3.44-3.72-5.55-11.77-.38-16.62,1.16-7.72,10.18-9.57,17.53-7.76,9,2.21,11.89,10.08,7.48,15Z" style="fill:#263238"></path><path d="M157.71,275.54a2.19,2.19,0,0,1,3.52-.13c.33.42.54.91.86,1.33a1.64,1.64,0,0,0,1.31.75,1.19,1.19,0,0,0,1-.57,3.82,3.82,0,0,0,.25-1.49c.72-7.08,2.79-9.35,7.74-8.14,2.22-2.08,3.5-3,6.11-2.75,2.85.22,4.86,1.51,4.89,10.8,0,7.26-2.47,10.72-3.68,11.42s-2.73.91-5.17.77l.19,4.12s3.32,2.52,1.8,6.37a24.62,24.62,0,0,1-6.83-1.63c-4.9-2.16-5.47-4.31-5.47-4.31l-.64-11a2.75,2.75,0,0,1-4.12.51C157.32,280.1,156.35,277.27,157.71,275.54Z" style="fill:#ffc4c3"></path><path d="M172.53,274.5a1.09,1.09,0,0,1-.91,1.23,1,1,0,0,1-1.21-.87,1.11,1.11,0,0,1,.91-1.23A1,1,0,0,1,172.53,274.5Z" style="fill:#263238"></path><path d="M181.54,272.32l-2.09-1.48a1.23,1.23,0,0,1,1.75-.34A1.34,1.34,0,0,1,181.54,272.32Z" style="fill:#263238"></path><path d="M172.05,271.24l-2.24,1.25a1.23,1.23,0,0,1,.45-1.73A1.35,1.35,0,0,1,172.05,271.24Z" style="fill:#263238"></path><path d="M172.54,280.69l4.23,1.21a2.21,2.21,0,0,1-2.93,1.44A2.07,2.07,0,0,1,172.54,280.69Z" style="fill:#b16668"></path><path d="M175.06,283.43a2.31,2.31,0,0,0-2.39-2l-.21,0a1.93,1.93,0,0,0,1.38,1.86A2.56,2.56,0,0,0,175.06,283.43Z" style="fill:#ffa8a7"></path><path d="M181.36,273.73a1.08,1.08,0,0,1-.88,1.2,1,1,0,0,1-1.18-.85,1.07,1.07,0,0,1,.88-1.19A1,1,0,0,1,181.36,273.73Z" style="fill:#263238"></path><polygon points="175.9 273.43 176.47 279.44 179.66 278.67 175.9 273.43" style="fill:#ffa8a7"></polygon><path d="M174.54,287.53c-2.57-.27-8-1.38-9.07-3.35a6,6,0,0,0,2.21,2.78c1.69,1.16,6.93,2,6.93,2Z" style="fill:#ffa8a7"></path></g><path d="M158,292.65c-3-3.2-12.72-13.46-14-15.7a70,70,0,0,1-2.8-10.2,63.89,63.89,0,0,1-.86-11.21c.1-2,1.39-3.07,2.51-4.52a11.42,11.42,0,0,0,1.56-3.17,9.22,9.22,0,0,1,.76-1.66,1,1,0,0,0,.2-.94.89.89,0,0,0-1-.39,2.78,2.78,0,0,0-1.61,1c-.43.5-.76,1.07-1.17,1.57a1.3,1.3,0,0,1-.57.45c-1.39.42,0-2.22.1-2.58.68-1.84,1.16-3.8,1.73-5.67a3.16,3.16,0,0,0,.19-1.17,1,1,0,0,0-.66-.91c-.54-.16-1.06.31-1.62.43a7.63,7.63,0,0,1-1.5-.11,4.43,4.43,0,0,0-2.08.63,11,11,0,0,0-2.53,1.58,7.73,7.73,0,0,0-2.11,4,24,24,0,0,0-.56,5c-.25,15.42-.3,21.56.68,27.1.32,1.8.77,4.72,1.83,6.21,1.65,2.31,4.75,6.36,8.43,11.11,1.65,2.14,5.26,6.33,8.34,10.25,1.73,2.2,3.47,7.33,3.47,7.33C156.75,310.49,161.72,298.73,158,292.65Z" style="fill:#ffc4c3"></path></g></g></g></g><g id="freepik--musical-notes--inject-3"><path id="freepik--musical-note--inject-3" d="M274.33,139.22l3,5.39,1.09-.34.79,1.4a2,2,0,0,0-.7.24,2.16,2.16,0,1,0,2.95.82l-1.76-3.14-1.09.35L277,141l5.54-5.36h0l1.68,3,1-.71,1.62,2.88a2.08,2.08,0,0,0-.7.24,2.17,2.17,0,1,0,2.95.82h0l-2.76-4.9-1,.76-3-5.29Z" style="fill:#00C3FF"></path><path id="freepik--musical-note--inject-3" d="M232.81,136.9,231.09,141l1.08.51-.9,2.17a2.15,2.15,0,0,0-.56-.36,2,2,0,1,0,1.06,2.57l1.64-3.91-1.09-.53.7-1.67,6.94,1h0l-1.3,3.13,1.06.59-1,2.33a2.15,2.15,0,0,0-.56-.36,2,2,0,1,0,1.06,2.57h0l1.68-4.05-1-.63,2.28-5.5Z" style="fill:#00C3FF"></path><path id="freepik--musical-note--inject-3" d="M257.77,155.7a4.19,4.19,0,0,1,1.41-1,8.39,8.39,0,0,1,2.25-.64,16.56,16.56,0,0,0,3.06-.69,3.89,3.89,0,0,0,2.29-2,4.15,4.15,0,0,1-1.76.46c-1.47.05-3-.85-4.49-1.11-2.15-.38-3.81.4-5.68,1.79.74,1.77,2.14,5.35,2.14,5.35l1.26-.35,1.29,3.25.71,1.92a4.05,4.05,0,0,0-1.71.26,3.23,3.23,0,1,0,4.21,1.79l-3.18-8-1.22.44Z" style="fill:#00C3FF"></path></g><g id="freepik--Label--inject-3"><g id="freepik--label--inject-3"><g id="freepik--label--inject-3"><path d="M397.27,26.15l20.44,59.74c-3.49,8.32-24.19,12.38-30.28,5.38l2.74-62.53Z" style="fill:#263238"></path><path d="M397.27,26.15l16.86,32.16s1.39,5-7.58,9.38c-8,3.87-14.39.73-14.39.73l-2-39.68Z" style="fill:#37474f"></path><path d="M103.14,26.15,82.7,85.89c3.49,8.32,24.18,12.38,30.28,5.38l-2.75-62.53Z" style="fill:#263238"></path><path d="M103.14,26.15,86.28,58.31s-1.4,5,7.58,9.38c8,3.87,14.39.73,14.39.73l2-39.68Z" style="fill:#37474f"></path><path d="M400.27,55.52S367.79,101.14,250,101.14,99.73,55.52,99.73,55.52l3-29.37S160,49.55,250.2,49.55s147.07-23.4,147.07-23.4Z" style="fill:#455a64"></path></g><path d="M150.88,74.74a.67.67,0,0,1-.23-.06c-1.38-.53-2.06-.8-3.42-1.35-.31-.13-.28-.22-.27-.25,1.51-5,2.29-7.55,4-13l.15-.48-1.05-.33-.25.32c-3.15,5-4.62,7.18-7.64,11.54l-.11,0a.52.52,0,0,1-.21-.06l-1.74-.79c-.33-.16-.33-.3-.34-.39.11-5.23.18-7.79.58-13.6l0-.37-1.08-.41-.16.49c-1.74,5-2.51,7.26-4,11.83a.68.68,0,0,1-.17-.07c-1.27-.65-1.89-1-3.13-1.66a.71.71,0,0,1-.29-.23c1.85-5.53,3-8.74,5.07-14.56l2.2-6.18c.06-.17.12-.17.16-.17l.16,0c1.86.6,2.79.89,4.65,1.46.17.06.23.1.21.35-.83,7.51-1,10.69-1.23,16.65l-.07,1.72,1-1.42c3.37-4.9,5.14-7.57,9.11-14.34.13-.22.24-.22.29-.22l.13,0c1.88.52,2.82.77,4.7,1.27.11,0,.15.06.15.08s0,.07,0,.2c-3.5,11.34-4.71,15.35-7.17,24Z" style="fill:#fafafa"></path><path d="M167.19,79.86a8.36,8.36,0,0,1-2.33-.38c-1.73-.51-2.58-.78-4.29-1.32-2.3-.74-4.85-2.29-3.95-5.52,2.18-7.84,3.29-11.65,6-20.69a.32.32,0,0,1,.28-.22c1.42.35,2.11.52,3.48.84a.2.2,0,0,1,.12.09.29.29,0,0,1,0,.2C164,61.75,163,65.54,161,73.12c-.14.51-.26,1.77,1.53,2.29l2,.58a3.13,3.13,0,0,0,.82.12A1.59,1.59,0,0,0,167,74.78c2-8,2.93-11.85,5.23-20.57a.3.3,0,0,1,.27-.23l3.35.72a.18.18,0,0,1,.13.08.25.25,0,0,1,0,.2c-2.33,9.52-3.28,13.6-5.12,21.79A3.49,3.49,0,0,1,167.19,79.86Z" style="fill:#fafafa"></path><path d="M186.17,84.5a9.43,9.43,0,0,1-1.75-.19c-1.77-.36-2.66-.55-4.42-.94-2.38-.52-5.05-1.9-4.3-5.46l.74-3.45a.1.1,0,0,1,.08,0h0c1.6.34,2.4.51,4,.83a.49.49,0,0,1,.15.06l-.13.51-.41,2.11a1.84,1.84,0,0,0,1.69,2.25l1.88.38a3.5,3.5,0,0,0,.62.06,1.69,1.69,0,0,0,1.77-1.53c.33-1.81.88-4.93.88-4.93L186.7,74c-3.47-1.73-5.14-2.59-8.52-4.4-.51-.28-.57-.57-.49-.92.7-3.22,1.07-4.85,1.84-8.23.59-2.63,2.16-4,4.51-4a7.49,7.49,0,0,1,1.3.12c1.62.3,2.43.44,4,.71,3.12.54,4.43,2.4,3.9,5.54l-.65,3.81-.12.06c-1.56-.23-2.34-.35-3.9-.61a.4.4,0,0,1-.09,0l.53-2.84a1.94,1.94,0,0,0-.24-1.51,2,2,0,0,0-1.37-.76l-1.76-.31a2.45,2.45,0,0,0-.46,0,1.85,1.85,0,0,0-1.88,1.61c-.41,2-.61,3-1,4.88l-.07.37.33.17c3.36,1.75,5,2.59,8.51,4.27.49.29.56.57.5.92-.52,3.24-.78,4.85-1.29,8C189.94,83.27,188.54,84.5,186.17,84.5Z" style="fill:#fafafa"></path><path d="M198.84,86.79c-1.65-.23-2.47-.36-4.12-.62a.37.37,0,0,1-.15,0c1.42-9.85,2.76-18.75,4.12-27.28a.19.19,0,0,1,0-.1c1.59.23,2.34.33,3.85.53l.07.1c-1.18,8.42-2.37,17.38-3.66,27.38l-.07,0Z" style="fill:#fafafa"></path><path d="M214.38,88.56a8.71,8.71,0,0,1-.87,0c-1.76-.17-2.63-.25-4.39-.44a5.46,5.46,0,0,1-3.88-1.76,4.51,4.51,0,0,1-.78-3.46c.88-7.27,1.32-10.91,2.23-18.28.35-2.8,1.86-4.22,4.5-4.22.27,0,.56,0,.87,0l4.07.41c3.15.29,4.62,2,4.38,5.09l-.31,3.88-.08.07-3.76-.33-.11,0,.29-2.93a1.81,1.81,0,0,0-1.79-2.12l-1.92-.19a1.62,1.62,0,0,0-.31,0A1.77,1.77,0,0,0,210.66,66l-1.75,16.33a1.92,1.92,0,0,0,.36,1.45,2.08,2.08,0,0,0,1.49.69l2,.21h.32A1.78,1.78,0,0,0,215,82.94l.27-2.87.12-.07c1.53.14,2.3.21,3.84.33a.28.28,0,0,1,.11,0L219,84.3C218.81,87.13,217.24,88.56,214.38,88.56Z" style="fill:#fafafa"></path><path d="M237.63,90.05c-1.63,0-2.45-.09-4.09-.16a.35.35,0,0,1-.14,0l1.24-27.7.09-.08c5.39.23,8,.3,13.44.33l.09.07,0,3.61-.09.07c-3.67,0-5.47,0-9.15-.16l-.5,0-.25,8.24.5,0c2.87.08,4.26.11,7.09.15h.1l0,3.67c0,.06,0,.07-.1.07-2.89,0-4.29-.06-7.18-.15h-.5l-.37,12s0,.07-.11.07Z" style="fill:#fafafa"></path><path d="M253.17,90.24s-.07,0-.08,0l-.18-27.73c5.45-.12,8.09-.19,13.49-.43h.08s.18,3.67.18,3.67a1,1,0,0,1,0,.11h-.08c-3.7.16-5.51.22-9.23.29h-.5l.16,8.21h.5c2.91-.06,4.33-.1,7.21-.21.09,0,.11,0,.11.11l.15,3.56c0,.07,0,.1,0,.1h0a.17.17,0,0,1-.09,0c-2.91.11-4.34.15-7.28.21h-.5l.16,8.28h.5c3.91-.08,5.82-.14,9.74-.32h.13s.17,3.66.17,3.66,0,.08-.13.09c-5.82.26-8.66.33-14.48.38Z" style="fill:#fafafa"></path><path d="M276,89.37c-3,0-4.61-1.52-4.76-4.39l-.2-3.78c0-.06,0-.08.11-.08l4-.24h.14l.07,1.46.09,1.37a1.82,1.82,0,0,0,2,1.81h.23l1.86-.14a2.13,2.13,0,0,0,1.51-.65,1.91,1.91,0,0,0,.39-1.45L281,78.16l-.36-.11c-3.72-.83-5.53-1.26-9.2-2.18-.49-.13-.7-.36-.72-.82l-.46-8.49c-.17-3.09,1.35-4.76,4.5-5,1.64-.11,2.45-.17,4.09-.3l.68,0c2.72,0,4.24,1.44,4.51,4.29l.35,3.8c0,.06,0,.08-.09.09-1.55.14-2.32.21-3.88.33l-.1-.06L280.13,67a1.79,1.79,0,0,0-1.89-1.87H278l-1.77.13a1.82,1.82,0,0,0-1.84,2.07l.35,5.33.36.08c3.7.89,5.5,1.31,9.2,2.09a.84.84,0,0,1,.72.8l.78,8.29a4.57,4.57,0,0,1-.86,3.49A5.4,5.4,0,0,1,281.09,89c-1.76.14-2.64.2-4.4.32Z" style="fill:#fafafa"></path><path d="M294.82,87.67h-.07c-.62-5.45-1.05-9.25-1.51-13.28-.33-3-1.2-10.6-1.2-10.6l-.5.05c-1.36.15-2.18.24-3.32.35l-1,.1-.1-.07-.36-3.58.08-.09c5.38-.55,8-.87,13.37-1.62h0s.06,0,.06.08c.22,1.46.32,2.18.53,3.61,0,.06,0,.08-.08.09-1.7.23-2.56.34-4.26.55l-.5.06.06.5c.51,3.93.9,7,1.27,9.93.51,4,1,7.84,1.71,13.32,0,.06,0,.08-.12.1-1.63.21-2.45.31-4.08.5Z" style="fill:#fafafa"></path><path d="M308.43,85.79h-.05c-.72-4.61-1.39-9.16-2.07-13.71S305,63,304.25,58.44a.24.24,0,0,1,0-.1c1.58-.23,2.33-.34,3.84-.59l.1.09c1,5.62,1.62,9.66,2.25,13.56s1.27,7.95,2.25,13.58c0,.08,0,.11-.12.12-1.62.29-2.43.42-4.05.68Z" style="fill:#fafafa"></path><path d="M322.79,83.08c-.07,0-.17,0-.28-.23-4.14-9-7.78-17.32-11.12-25.44a.53.53,0,0,1,0-.19h0l.17,0,3.43-.61h.1c.07,0,.17,0,.28.24,3.07,7.62,4.41,10.81,7.43,17.8l1-.19c0-1.77.07-3.31.11-4.73.13-4.8.22-8.27.06-14.58,0-.26.09-.3.25-.33,1.36-.28,2.05-.43,3.41-.73l.13,0c.06,0,.09,0,.1.21,0,6-.17,12.16-.38,18.09-.11,3.16-.22,6.32-.29,9.48a.35.35,0,0,1-.32.39c-1.54.36-2.31.54-3.86.87Z" style="fill:#fafafa"></path><path d="M333.13,80.59c0-3.34.07-6.74.13-10,.1-5.8.2-11.8,0-17.7a.22.22,0,0,1,0-.13c2.07-.5,3.07-.74,5.05-1.24h.1s0,0,.07.1c3.67,7.25,5.62,10.72,8.31,15.51,1.22,2.17,2.59,4.59,4.32,7.75a.33.33,0,0,0,0,.06l-.11,0c-1.56.57-2.34.85-3.92,1.39h0s-.06,0-.09-.07c-.92-1.85-2.36-4.7-2.36-4.7l-.19-.38-.41.13c-2.61.84-3.9,1.24-6.6,2l-.37.11v.39c.07,2.1.11,3.18.22,5.44,0,.15,0,.16-.12.19-1.62.46-2.43.68-4.06,1.12h0Zm3.65-22.82c.16,3.54.21,5.69.27,8.42,0,1,.1,4.17.1,4.17l.62-.17c1.9-.54,2.84-.82,4.73-1.4l.56-.17-.26-.53c-2-4.18-3-6.09-5.07-10.56Z" style="fill:#fafafa"></path><path d="M355.37,73.29c-1.55-5.49-2.48-8.92-3.37-12.23s-1.83-6.75-3.41-12.2l.06-.11c1.47-.42,2.21-.63,3.68-1.07l.12.06c1.6,5.28,2.46,8.34,3.38,11.58.67,2.35,1.37,4.82,2.4,8.31l.15.53.52-.21c3.48-1.44,5.14-2.19,8.47-3.78h.05c.38,1.19.58,1.82,1,3.14,0,.12,0,.13-.14.22a136.07,136.07,0,0,1-12.81,5.74.27.27,0,0,1-.11,0Z" style="fill:#fafafa"></path><polygon points="109.81 55.74 105.41 53.52 110.62 52.66 111.78 47.16 115.19 52.75 123.59 51.9 116.61 55.71 118.66 61.12 112.77 57.36 108.73 59.81 109.81 55.74" style="fill:#00C3FF"></polygon><polygon points="378.64 42.8 383.53 42.13 379.72 45.79 381.88 50.98 375.91 48.31 369.46 53.77 373.06 46.67 368.3 43.38 375.29 43.14 377.23 38.83 378.64 42.8" style="fill:#00C3FF"></polygon><polygon points="133.12 49.12 112.37 43.81 117.05 41.5 106.89 38.59 115.02 35.56 126.66 40.09 121.07 42.85 133.12 49.12" style="fill:#00C3FF"></polygon><polygon points="367.51 61.67 386.66 52.07 384.63 56.89 394.21 52.42 390.07 60.04 378.3 64.25 380.72 58.51 367.51 61.67" style="fill:#00C3FF"></polygon><polygon points="124.22 64.51 124.96 69.49 132.44 52.01 124.22 64.51" style="fill:#00C3FF"></polygon><polygon points="123.14 60.94 130.42 52.3 131 52.22 125.33 60.62 123.14 60.94" style="fill:#00C3FF"></polygon><polygon points="362.24 46.93 359.21 42.74 360.69 62.24 362.24 46.93" style="fill:#00C3FF"></polygon><polygon points="364.93 49.67 362.39 61.01 361.9 61.36 363.08 51 364.93 49.67" style="fill:#00C3FF"></polygon></g></g></svg>