 <svg  version="1.0" xmlns="http://www.w3.org/2000/svg"  width="300.000000pt" height="157.000000pt" viewBox="0 0 300.000000 157.000000"  preserveAspectRatio="xMidYMid meet">  <g transform="translate(0.000000,157.000000) scale(0.100000,-0.100000)" fill="#00c0ff" stroke="none"> <path d="M1503 1344 c-3 -8 2 -23 11 -32 14 -15 18 -15 31 -1 9 9 13 23 9 32 -8 21 -43 22 -51 1z"/> <path d="M1335 1300 c-35 -38 6 -96 58 -82 28 7 43 46 29 77 -14 31 -61 34 -87 5z"/> <path d="M1700 1300 c-24 -24 -24 -29 -4 -58 17 -24 53 -29 72 -10 17 17 15 54 -4 72 -21 21 -40 20 -64 -4z"/> <path d="M1530 1212 c-30 -24 -21 -69 15 -78 52 -13 75 52 29 83 -19 12 -24 11 -44 -5z"/> <path d="M1266 1164 c-19 -18 -19 -20 -6 -45 24 -43 82 -9 62 36 -13 29 -34 32 -56 9z"/> <path d="M1715 1140 c-36 -40 7 -100 58 -81 33 13 43 46 23 76 -20 30 -56 32 -81 5z"/> <path d="M1407 1134 c-12 -12 -8 -42 6 -47 21 -8 39 8 35 29 -3 19 -29 30 -41 18z"/> <path d="M1156 1094 c-20 -19 -20 -38 -2 -54 23 -19 61 -8 64 18 7 44 -32 67 -62 36z"/> <path d="M1737 993 c-4 -3 -7 -13 -7 -21 0 -12 3 -12 15 -2 13 11 14 10 9 -5 -8 -19 12 -36 33 -28 7 3 13 15 13 27 0 17 2 18 10 6 8 -13 10 -13 10 1 0 23 -10 30 -31 19 -12 -7 -20 -7 -24 0 -7 12 -19 13 -28 3z"/> <path d="M1989 974 c-13 -35 -4 -42 21 -19 20 18 20 18 14 -14 -8 -36 5 -51 42 -51 33 0 49 25 36 55 -13 28 -2 34 18 10 17 -21 29 -19 23 5 -9 34 -31 45 -51 26 -23 -20 -36 -20 -52 -1 -19 23 -39 18 -51 -11z"/> <path d="M1172 978 c-15 -18 1 -41 24 -36 23 4 26 41 3 46 -9 1 -21 -3 -27 -10z"/> <path d="M850 945 c-17 -20 -5 -62 20 -70 42 -13 71 24 54 69 -8 20 -57 21 -74 1z"/> <path d="M1133 932 c31 -33 33 -49 11 -81 -16 -23 -16 -23 6 -16 18 6 28 2 42 -16 l19 -24 -7 47 c-5 42 -3 50 21 73 29 30 28 42 -3 26 -29 -15 -57 -14 -72 4 -7 8 -19 15 -28 15 -12 0 -9 -7 11 -28z"/> <path d="M1816 938 c-24 -18 -32 -20 -60 -10 -46 17 -52 15 -23 -8 33 -26 41 -52 28 -93 l-11 -33 -190 4 c-186 4 -441 -10 -510 -28 -27 -7 -18 -8 35 -4 263 21 666 21 793 0 86 -15 96 -16 87 -7 -6 5 -50 14 -100 21 -49 6 -91 13 -93 15 -2 2 1 13 8 24 9 18 14 19 32 10 19 -10 20 -9 13 7 -18 45 -17 65 5 89 30 32 23 39 -14 13z"/> <path d="M2141 900 c-52 -36 -90 -38 -142 -8 -43 24 -68 15 -29 -11 71 -47 94 -111 65 -190 -21 -60 -4 -77 24 -23 26 51 33 55 65 41 36 -17 42 -5 17 27 -35 45 -23 101 33 153 26 24 33 41 19 41 -5 0 -28 -14 -52 -30z"/> <path d="M750 912 c0 -5 12 -19 26 -33 56 -52 68 -108 33 -153 -25 -32 -17 -52 14 -31 30 21 34 20 57 -24 37 -73 61 -68 34 6 -25 70 -14 117 41 170 24 22 41 44 38 47 -3 3 -23 -4 -44 -14 -55 -29 -98 -26 -147 10 -44 32 -52 35 -52 22z"/> <path d="M1400 733 c-133 -3 -353 -24 -370 -34 -11 -7 -5 -9 20 -5 128 18 468 27 649 17 108 -7 210 -14 226 -17 22 -4 26 -3 15 5 -30 19 -348 39 -540 34z"/> <path d="M1303 659 c-137 -8 -229 -20 -383 -50 -118 -23 -305 -81 -335 -103 -13 -10 8 -6 60 10 99 30 302 68 460 86 154 17 662 17 810 0 168 -19 339 -51 449 -84 54 -16 100 -27 102 -25 7 7 -152 65 -248 91 -94 26 -293 59 -423 71 -107 10 -356 12 -492 4z"/> <path d="M1225 573 c-86 -6 -408 -54 -425 -63 -9 -6 278 -9 720 -9 405 0 726 4 714 9 -28 11 -329 48 -494 60 -126 9 -400 11 -515 3z m525 -33 c14 -5 -100 -8 -252 -9 -185 -1 -278 2 -278 9 0 12 490 12 530 0z"/> <path d="M234 415 c-1 -30 3 -45 12 -45 7 0 10 9 7 23 l-4 22 14 -23 13 -23 12 23 13 23 -5 -22 c-3 -17 1 -23 13 -23 14 0 18 9 18 45 0 50 -8 56 -31 24 l-14 -21 -11 21 c-20 36 -36 25 -37 -24z"/> <path d="M357 442 c-30 -33 -15 -72 28 -72 42 0 59 44 29 74 -20 21 -37 20 -57 -2z m41 -31 c3 -16 -1 -22 -10 -19 -7 3 -15 15 -16 27 -3 16 1 22 10 19 7 -3 15 -15 16 -27z"/> <path d="M444 451 c-11 -11 -2 -30 11 -25 18 7 18 4 5 -30 -9 -25 -8 -26 22 -26 25 0 29 3 20 12 -7 7 -12 23 -12 36 0 21 2 23 16 11 14 -12 16 -11 13 5 -3 14 -13 19 -37 20 -19 1 -36 -1 -38 -3z"/> <path d="M535 415 c0 -44 1 -45 32 -45 32 0 52 15 38 28 -4 4 -10 1 -12 -5 -10 -28 -24 -11 -21 25 2 31 0 37 -17 40 -18 2 -21 -3 -20 -43z"/> <path d="M632 418 c-12 -27 -15 -45 -8 -47 5 -2 12 1 14 8 2 6 10 11 18 11 9 0 12 -4 9 -10 -4 -6 18 -10 59 -10 54 0 66 3 66 16 0 13 -3 14 -15 4 -19 -16 -30 8 -21 46 6 22 4 25 -16 22 -14 -2 -22 -9 -19 -18 15 -55 -9 -79 -29 -31 -22 55 -37 57 -58 9z"/> <path d="M795 452 c-2 -3 0 -13 6 -24 6 -10 7 -27 4 -38 -6 -18 -1 -19 58 -19 60 1 64 2 59 21 -3 14 -1 19 6 14 7 -4 12 -14 12 -22 0 -10 12 -14 41 -14 24 0 38 4 34 10 -3 6 1 10 10 10 9 0 13 -4 10 -10 -4 -6 12 -10 42 -10 l48 0 1 45 c1 37 -2 45 -17 45 -15 0 -18 -7 -16 -32 3 -47 -14 -49 -37 -5 -23 43 -35 43 -50 0 -6 -18 -14 -35 -19 -39 -11 -11 -35 26 -30 46 5 20 -11 28 -47 25 -22 -1 -25 -5 -22 -41 2 -26 0 -35 -6 -25 -7 9 -12 10 -16 2 -10 -16 -36 -13 -36 4 0 8 6 12 14 9 11 -4 25 21 26 48 0 7 -68 7 -75 0z"/> <path d="M1145 415 c0 -35 4 -45 17 -45 12 0 15 6 11 23 l-6 22 26 -24 c15 -14 29 -23 31 -20 2 2 6 23 9 47 4 32 2 42 -9 42 -8 0 -14 -10 -14 -22 l0 -21 -23 21 c-34 32 -43 27 -42 -23z"/> <path d="M1277 454 c-3 -4 4 -15 16 -25 19 -15 20 -21 9 -38 -11 -19 -10 -21 17 -21 24 0 28 3 24 23 -3 14 2 31 11 40 20 20 20 27 1 27 -8 0 -15 -7 -15 -15 0 -8 -4 -15 -10 -15 -5 0 -10 7 -10 15 0 15 -31 21 -43 9z"/> <path d="M1387 442 c-30 -33 -15 -72 28 -72 42 0 59 44 29 74 -20 21 -37 20 -57 -2z m41 -31 c3 -16 -1 -22 -10 -19 -7 3 -15 15 -16 27 -3 16 1 22 10 19 7 -3 15 -15 16 -27z"/> <path d="M1476 428 c10 -57 12 -59 46 -56 29 3 34 7 39 38 4 19 7 29 8 21 1 -11 4 -11 18 0 15 13 16 11 10 -23 -5 -34 -4 -38 17 -38 19 0 21 4 18 33 -3 28 -1 33 18 33 19 0 21 -5 18 -33 l-4 -33 46 0 45 0 -1 42 c-1 31 -6 44 -18 46 -11 2 -16 -3 -16 -17 0 -12 -5 -21 -10 -21 -6 0 -10 8 -8 17 3 15 -7 18 -84 18 l-86 1 5 -34 c5 -30 3 -34 -13 -30 -15 3 -18 11 -16 36 2 26 -2 32 -18 32 -17 0 -19 -5 -14 -32z"/> <path d="M1798 415 l-3 -45 35 0 c41 0 60 15 60 47 0 25 -26 43 -63 43 -22 0 -25 -5 -29 -45z m60 0 c-4 -33 -22 -33 -26 0 -2 18 1 25 13 25 12 0 15 -7 13 -25z"/> <path d="M1905 413 c0 -43 0 -43 38 -43 27 0 37 4 37 16 0 13 -3 14 -15 4 -15 -12 -35 -6 -35 12 0 5 7 8 15 4 9 -3 15 0 15 9 0 9 -6 12 -15 9 -8 -4 -15 -1 -15 5 0 5 14 9 31 8 25 -2 35 -9 47 -34 9 -18 19 -33 24 -33 5 0 16 16 25 35 9 19 23 35 31 35 11 0 13 -9 9 -35 l-6 -35 40 0 c29 0 39 4 39 16 0 13 -3 14 -15 4 -15 -13 -39 -5 -29 11 3 5 10 7 15 4 5 -4 9 1 9 9 0 10 -6 13 -15 10 -8 -4 -15 -1 -15 6 0 8 9 10 26 6 18 -5 25 -3 22 5 -2 7 -27 13 -61 14 -49 1 -57 -1 -57 -17 0 -10 -4 -18 -10 -18 -5 0 -10 9 -10 19 0 17 -7 19 -63 18 l-62 -2 0 -42z"/> <path d="M2185 415 c0 -44 1 -45 33 -45 23 0 32 5 32 16 0 13 -3 14 -14 5 -20 -16 -29 2 -21 39 5 25 3 30 -12 30 -15 0 -18 -8 -18 -45z"/> <path d="M2278 449 c-36 -21 -16 -79 27 -79 43 0 59 44 27 73 -21 19 -30 20 -54 6z m36 -25 c10 -25 7 -34 -9 -34 -9 0 -15 9 -15 25 0 28 15 34 24 9z"/> <path d="M2365 413 c0 -34 4 -43 17 -43 11 0 15 5 12 15 -4 9 0 15 9 15 8 0 20 7 27 15 17 20 2 36 -36 39 -28 2 -29 0 -29 -41z"/> <path d="M2449 458 c0 -2 -1 -22 -2 -46 -1 -29 2 -42 11 -42 9 0 11 7 7 23 -6 21 -6 21 9 3 16 -20 16 -20 32 0 15 18 15 18 9 -4 -6 -22 -5 -22 78 -21 81 1 84 2 79 23 -5 20 -4 20 21 -3 15 -14 29 -23 31 -20 2 2 6 23 9 47 4 33 2 42 -10 42 -10 0 -12 -6 -8 -20 8 -26 -7 -26 -30 0 -26 29 -40 19 -37 -26 2 -26 0 -35 -6 -25 -7 9 -12 10 -16 2 -10 -16 -36 -13 -36 4 0 8 6 12 14 9 9 -3 16 4 20 22 9 33 6 36 -31 28 -27 -5 -31 -10 -29 -36 0 -18 -5 -33 -12 -36 -10 -3 -13 5 -11 31 4 47 -8 58 -30 28 l-19 -24 -11 21 c-10 18 -29 30 -32 20z"/> <path d="M2754 451 c-10 -11 -2 -30 11 -25 11 5 12 0 5 -25 -8 -30 -8 -31 23 -31 24 0 28 3 19 12 -7 7 -12 23 -12 36 0 20 3 22 14 13 15 -13 29 -1 18 15 -7 9 -69 13 -78 5z"/> <path d="M1068 270 c-13 -32 -14 -40 -3 -40 7 0 16 6 19 13 5 10 7 10 12 0 6 -14 44 -18 44 -5 0 12 -39 72 -47 72 -5 0 -16 -18 -25 -40z"/> <path d="M1150 290 c-19 -36 3 -59 55 -58 25 0 45 4 45 9 0 5 7 9 16 9 8 0 12 -5 9 -11 -5 -7 14 -9 56 -7 46 2 65 8 73 21 16 26 -4 51 -46 55 -34 3 -34 3 -30 -33 5 -46 -13 -46 -32 0 -16 37 -46 48 -46 17 0 -19 -29 -65 -30 -46 0 6 -10 10 -22 10 -14 -1 -24 6 -26 18 -3 16 0 18 22 12 19 -5 26 -3 26 9 0 24 -57 20 -70 -5z"/> <path d="M1415 270 l0 -40 53 0 c41 0 52 3 52 16 0 14 1 14 16 0 8 -9 25 -16 36 -16 17 0 19 4 14 25 -4 14 -4 30 0 36 10 16 34 -10 34 -37 0 -18 6 -24 21 -24 16 0 19 4 14 19 -4 13 2 27 16 40 23 21 23 21 2 21 -12 0 -24 -6 -26 -12 -4 -10 -6 -10 -6 0 -2 20 -77 16 -86 -5 -6 -17 -7 -17 -19 0 -10 12 -27 17 -67 17 l-54 0 0 -40z m85 -5 c0 -21 -3 -26 -9 -16 -6 9 -11 10 -15 2 -10 -16 -26 -13 -26 5 0 8 5 12 10 9 6 -3 10 1 10 10 0 9 -4 13 -10 10 -5 -3 -10 -2 -10 3 0 6 11 9 25 8 21 -1 25 -6 25 -31z"/> <path d="M1720 295 c7 -8 10 -25 6 -40 -5 -19 -2 -25 9 -25 12 0 15 6 9 23 l-6 22 24 -22 c33 -31 38 -29 38 12 0 19 5 35 10 35 6 0 10 -16 10 -35 0 -28 4 -35 20 -35 12 0 17 5 14 14 -3 8 3 16 16 19 14 4 21 12 18 24 -2 14 -14 19 -57 21 -45 3 -53 1 -48 -12 8 -20 -7 -21 -23 -1 -7 8 -21 15 -32 15 -17 0 -18 -3 -8 -15z"/> <path d="M1901 288 c-13 -33 5 -60 36 -56 15 2 28 8 30 15 3 7 -3 9 -16 6 -14 -3 -23 0 -27 11 -9 24 4 32 26 18 17 -11 20 -10 20 8 0 30 -58 28 -69 -2z"/> <path d="M2749 276 c-15 -15 -436 -62 -659 -73 -198 -10 -979 -10 -1173 -1 -163 9 -390 31 -541 54 -54 8 -101 13 -103 10 -12 -12 287 -57 552 -83 261 -25 1109 -26 1375 0 271 26 543 69 565 88 5 6 5 9 -1 9 -6 0 -13 -2 -15 -4z"/> </g> </svg> 