<svg xmlns="http://www.w3.org/2000/svg" version="1.1" xmlns:xlink="http://www.w3.org/1999/xlink" xmlns:svgjs="http://svgjs.dev/svgjs" viewBox="0 0 1422 800" opacity="1"><defs><linearGradient x1="50%" y1="0%" x2="50%" y2="100%" id="oooscillate-grad"><stop stop-color="hsl(195, 100%, 50%)" stop-opacity="1" offset="0%"></stop><stop stop-color="hsl(60, 89%, 59%)" stop-opacity="1" offset="100%"></stop></linearGradient></defs><g stroke-width="1" stroke="url(#oooscillate-grad)" fill="none" stroke-linecap="round"><path d="M 0 1554 Q 355.5 25 711 400 Q 1066.5 775 1422 1554" opacity="0.68"></path><path d="M 0 1540 Q 355.5 25 711 400 Q 1066.5 775 1422 1540" opacity="0.79"></path><path d="M 0 1526 Q 355.5 25 711 400 Q 1066.5 775 1422 1526" opacity="0.73"></path><path d="M 0 1512 Q 355.5 25 711 400 Q 1066.5 775 1422 1512" opacity="0.68"></path><path d="M 0 1498 Q 355.5 25 711 400 Q 1066.5 775 1422 1498" opacity="0.87"></path><path d="M 0 1484 Q 355.5 25 711 400 Q 1066.5 775 1422 1484" opacity="0.53"></path><path d="M 0 1470 Q 355.5 25 711 400 Q 1066.5 775 1422 1470" opacity="0.91"></path><path d="M 0 1456 Q 355.5 25 711 400 Q 1066.5 775 1422 1456" opacity="0.40"></path><path d="M 0 1442 Q 355.5 25 711 400 Q 1066.5 775 1422 1442" opacity="0.19"></path><path d="M 0 1428 Q 355.5 25 711 400 Q 1066.5 775 1422 1428" opacity="1.00"></path><path d="M 0 1414 Q 355.5 25 711 400 Q 1066.5 775 1422 1414" opacity="0.74"></path><path d="M 0 1400 Q 355.5 25 711 400 Q 1066.5 775 1422 1400" opacity="0.71"></path><path d="M 0 1386 Q 355.5 25 711 400 Q 1066.5 775 1422 1386" opacity="0.96"></path><path d="M 0 1372 Q 355.5 25 711 400 Q 1066.5 775 1422 1372" opacity="0.70"></path><path d="M 0 1358 Q 355.5 25 711 400 Q 1066.5 775 1422 1358" opacity="0.86"></path><path d="M 0 1344 Q 355.5 25 711 400 Q 1066.5 775 1422 1344" opacity="0.81"></path><path d="M 0 1330 Q 355.5 25 711 400 Q 1066.5 775 1422 1330" opacity="0.13"></path><path d="M 0 1316 Q 355.5 25 711 400 Q 1066.5 775 1422 1316" opacity="0.19"></path><path d="M 0 1302 Q 355.5 25 711 400 Q 1066.5 775 1422 1302" opacity="0.54"></path><path d="M 0 1288 Q 355.5 25 711 400 Q 1066.5 775 1422 1288" opacity="0.31"></path><path d="M 0 1274 Q 355.5 25 711 400 Q 1066.5 775 1422 1274" opacity="0.20"></path><path d="M 0 1260 Q 355.5 25 711 400 Q 1066.5 775 1422 1260" opacity="0.93"></path><path d="M 0 1246 Q 355.5 25 711 400 Q 1066.5 775 1422 1246" opacity="0.08"></path><path d="M 0 1232 Q 355.5 25 711 400 Q 1066.5 775 1422 1232" opacity="0.58"></path><path d="M 0 1218 Q 355.5 25 711 400 Q 1066.5 775 1422 1218" opacity="0.68"></path><path d="M 0 1204 Q 355.5 25 711 400 Q 1066.5 775 1422 1204" opacity="0.10"></path><path d="M 0 1190 Q 355.5 25 711 400 Q 1066.5 775 1422 1190" opacity="0.22"></path><path d="M 0 1176 Q 355.5 25 711 400 Q 1066.5 775 1422 1176" opacity="0.30"></path><path d="M 0 1162 Q 355.5 25 711 400 Q 1066.5 775 1422 1162" opacity="0.09"></path><path d="M 0 1148 Q 355.5 25 711 400 Q 1066.5 775 1422 1148" opacity="0.64"></path><path d="M 0 1134 Q 355.5 25 711 400 Q 1066.5 775 1422 1134" opacity="0.13"></path><path d="M 0 1120 Q 355.5 25 711 400 Q 1066.5 775 1422 1120" opacity="0.84"></path><path d="M 0 1106 Q 355.5 25 711 400 Q 1066.5 775 1422 1106" opacity="0.84"></path><path d="M 0 1092 Q 355.5 25 711 400 Q 1066.5 775 1422 1092" opacity="0.59"></path><path d="M 0 1078 Q 355.5 25 711 400 Q 1066.5 775 1422 1078" opacity="0.77"></path><path d="M 0 1064 Q 355.5 25 711 400 Q 1066.5 775 1422 1064" opacity="0.63"></path><path d="M 0 1050 Q 355.5 25 711 400 Q 1066.5 775 1422 1050" opacity="0.93"></path><path d="M 0 1036 Q 355.5 25 711 400 Q 1066.5 775 1422 1036" opacity="0.54"></path><path d="M 0 1022 Q 355.5 25 711 400 Q 1066.5 775 1422 1022" opacity="0.58"></path><path d="M 0 1008 Q 355.5 25 711 400 Q 1066.5 775 1422 1008" opacity="0.10"></path><path d="M 0 994 Q 355.5 25 711 400 Q 1066.5 775 1422 994" opacity="0.35"></path><path d="M 0 980 Q 355.5 25 711 400 Q 1066.5 775 1422 980" opacity="0.33"></path><path d="M 0 966 Q 355.5 25 711 400 Q 1066.5 775 1422 966" opacity="0.73"></path><path d="M 0 952 Q 355.5 25 711 400 Q 1066.5 775 1422 952" opacity="0.91"></path><path d="M 0 938 Q 355.5 25 711 400 Q 1066.5 775 1422 938" opacity="0.35"></path><path d="M 0 924 Q 355.5 25 711 400 Q 1066.5 775 1422 924" opacity="0.20"></path><path d="M 0 910 Q 355.5 25 711 400 Q 1066.5 775 1422 910" opacity="0.76"></path><path d="M 0 896 Q 355.5 25 711 400 Q 1066.5 775 1422 896" opacity="0.10"></path><path d="M 0 882 Q 355.5 25 711 400 Q 1066.5 775 1422 882" opacity="0.86"></path><path d="M 0 868 Q 355.5 25 711 400 Q 1066.5 775 1422 868" opacity="0.57"></path><path d="M 0 854 Q 355.5 25 711 400 Q 1066.5 775 1422 854" opacity="0.63"></path><path d="M 0 840 Q 355.5 25 711 400 Q 1066.5 775 1422 840" opacity="0.56"></path><path d="M 0 826 Q 355.5 25 711 400 Q 1066.5 775 1422 826" opacity="0.35"></path><path d="M 0 812 Q 355.5 25 711 400 Q 1066.5 775 1422 812" opacity="0.38"></path><path d="M 0 798 Q 355.5 25 711 400 Q 1066.5 775 1422 798" opacity="0.40"></path><path d="M 0 784 Q 355.5 25 711 400 Q 1066.5 775 1422 784" opacity="0.74"></path><path d="M 0 770 Q 355.5 25 711 400 Q 1066.5 775 1422 770" opacity="0.31"></path><path d="M 0 756 Q 355.5 25 711 400 Q 1066.5 775 1422 756" opacity="0.15"></path><path d="M 0 742 Q 355.5 25 711 400 Q 1066.5 775 1422 742" opacity="0.28"></path><path d="M 0 728 Q 355.5 25 711 400 Q 1066.5 775 1422 728" opacity="0.90"></path><path d="M 0 714 Q 355.5 25 711 400 Q 1066.5 775 1422 714" opacity="0.60"></path><path d="M 0 700 Q 355.5 25 711 400 Q 1066.5 775 1422 700" opacity="0.68"></path><path d="M 0 686 Q 355.5 25 711 400 Q 1066.5 775 1422 686" opacity="0.45"></path><path d="M 0 672 Q 355.5 25 711 400 Q 1066.5 775 1422 672" opacity="0.62"></path><path d="M 0 658 Q 355.5 25 711 400 Q 1066.5 775 1422 658" opacity="0.09"></path><path d="M 0 644 Q 355.5 25 711 400 Q 1066.5 775 1422 644" opacity="0.94"></path><path d="M 0 630 Q 355.5 25 711 400 Q 1066.5 775 1422 630" opacity="0.38"></path><path d="M 0 616 Q 355.5 25 711 400 Q 1066.5 775 1422 616" opacity="0.94"></path><path d="M 0 602 Q 355.5 25 711 400 Q 1066.5 775 1422 602" opacity="0.66"></path><path d="M 0 588 Q 355.5 25 711 400 Q 1066.5 775 1422 588" opacity="0.21"></path><path d="M 0 574 Q 355.5 25 711 400 Q 1066.5 775 1422 574" opacity="0.94"></path><path d="M 0 560 Q 355.5 25 711 400 Q 1066.5 775 1422 560" opacity="0.28"></path><path d="M 0 546 Q 355.5 25 711 400 Q 1066.5 775 1422 546" opacity="0.53"></path><path d="M 0 532 Q 355.5 25 711 400 Q 1066.5 775 1422 532" opacity="0.67"></path><path d="M 0 518 Q 355.5 25 711 400 Q 1066.5 775 1422 518" opacity="0.87"></path><path d="M 0 504 Q 355.5 25 711 400 Q 1066.5 775 1422 504" opacity="0.73"></path><path d="M 0 490 Q 355.5 25 711 400 Q 1066.5 775 1422 490" opacity="0.88"></path><path d="M 0 476 Q 355.5 25 711 400 Q 1066.5 775 1422 476" opacity="0.30"></path><path d="M 0 462 Q 355.5 25 711 400 Q 1066.5 775 1422 462" opacity="0.64"></path><path d="M 0 448 Q 355.5 25 711 400 Q 1066.5 775 1422 448" opacity="0.48"></path><path d="M 0 434 Q 355.5 25 711 400 Q 1066.5 775 1422 434" opacity="0.60"></path><path d="M 0 420 Q 355.5 25 711 400 Q 1066.5 775 1422 420" opacity="0.72"></path><path d="M 0 406 Q 355.5 25 711 400 Q 1066.5 775 1422 406" opacity="0.11"></path><path d="M 0 392 Q 355.5 25 711 400 Q 1066.5 775 1422 392" opacity="0.71"></path><path d="M 0 378 Q 355.5 25 711 400 Q 1066.5 775 1422 378" opacity="0.38"></path><path d="M 0 364 Q 355.5 25 711 400 Q 1066.5 775 1422 364" opacity="0.88"></path><path d="M 0 350 Q 355.5 25 711 400 Q 1066.5 775 1422 350" opacity="1.00"></path><path d="M 0 336 Q 355.5 25 711 400 Q 1066.5 775 1422 336" opacity="0.83"></path><path d="M 0 322 Q 355.5 25 711 400 Q 1066.5 775 1422 322" opacity="0.37"></path><path d="M 0 308 Q 355.5 25 711 400 Q 1066.5 775 1422 308" opacity="0.22"></path><path d="M 0 294 Q 355.5 25 711 400 Q 1066.5 775 1422 294" opacity="0.27"></path><path d="M 0 280 Q 355.5 25 711 400 Q 1066.5 775 1422 280" opacity="0.76"></path><path d="M 0 266 Q 355.5 25 711 400 Q 1066.5 775 1422 266" opacity="0.40"></path><path d="M 0 252 Q 355.5 25 711 400 Q 1066.5 775 1422 252" opacity="0.82"></path><path d="M 0 238 Q 355.5 25 711 400 Q 1066.5 775 1422 238" opacity="0.81"></path><path d="M 0 224 Q 355.5 25 711 400 Q 1066.5 775 1422 224" opacity="0.63"></path><path d="M 0 210 Q 355.5 25 711 400 Q 1066.5 775 1422 210" opacity="0.64"></path><path d="M 0 196 Q 355.5 25 711 400 Q 1066.5 775 1422 196" opacity="0.48"></path><path d="M 0 182 Q 355.5 25 711 400 Q 1066.5 775 1422 182" opacity="0.30"></path><path d="M 0 168 Q 355.5 25 711 400 Q 1066.5 775 1422 168" opacity="0.91"></path><path d="M 0 154 Q 355.5 25 711 400 Q 1066.5 775 1422 154" opacity="0.77"></path><path d="M 0 140 Q 355.5 25 711 400 Q 1066.5 775 1422 140" opacity="0.10"></path><path d="M 0 126 Q 355.5 25 711 400 Q 1066.5 775 1422 126" opacity="0.72"></path><path d="M 0 112 Q 355.5 25 711 400 Q 1066.5 775 1422 112" opacity="0.92"></path><path d="M 0 98 Q 355.5 25 711 400 Q 1066.5 775 1422 98" opacity="0.91"></path><path d="M 0 84 Q 355.5 25 711 400 Q 1066.5 775 1422 84" opacity="0.41"></path><path d="M 0 70 Q 355.5 25 711 400 Q 1066.5 775 1422 70" opacity="0.31"></path><path d="M 0 56 Q 355.5 25 711 400 Q 1066.5 775 1422 56" opacity="0.31"></path><path d="M 0 42 Q 355.5 25 711 400 Q 1066.5 775 1422 42" opacity="0.19"></path><path d="M 0 28 Q 355.5 25 711 400 Q 1066.5 775 1422 28" opacity="0.33"></path></g></svg>